<svg width="84" height="150" viewBox="0 0 84 150" fill="none" xmlns="http://www.w3.org/2000/svg">
<g clip-path="url(#clip0_498_1096)">
<path d="M1.8501 102V13H12.8501C-2.3499 84.6 51.8501 95.46 80.8501 91.94V102H1.8501Z" fill="#3A53A5"/>
<path d="M8.8501 64.5L13.8501 59.5L14.3501 59L17.8501 66L12.8501 70.5L8.8501 64.5Z" fill="#F42123"/>
<path d="M16.8501 79.5L22.8501 73.5L27.8501 78.5L20.8501 85L16.8501 79.5Z" fill="#F42123"/>
<path d="M31.8501 97L27.8501 91L35.3501 83.5L41.8501 87L31.8501 97Z" fill="#F42123"/>
<path d="M79.8501 0L14.3501 61L16.3501 65L79.8501 5.5V0Z" fill="#FC1921"/>
<path d="M80.8501 21.5L24.3501 74.5L26.8501 77.5L80.8501 27V21.5Z" fill="#FC1921"/>
<path d="M79.8501 45L36.3501 85.5L40.3501 87L79.8501 50V45Z" fill="#FC1921"/>
<path d="M17.8501 66L12.8501 70.5L8.8501 64.5L14.3501 59" stroke="white"/>
<path d="M22.8501 73.5L16.8501 79.5L20.8501 85L27.8501 78.5" stroke="white"/>
<path d="M35.3501 83.5L27.8501 91L31.8501 97L41.8501 87" stroke="white"/>
<path d="M21.1499 107V124.71H18.3599V114.5L18.5799 109.61L12.8499 124.75H10.2899L4.55994 109.61L4.77994 114.5V124.75H1.93994V107H6.46994L10.2599 117.25L11.5699 121.46H11.6299L12.9699 117.25L16.7299 107H21.1499Z" fill="#FC1921"/>
<path d="M35.3698 106.77C37.0143 106.73 38.6419 107.108 40.0998 107.87C41.4017 108.591 42.4625 109.68 43.1498 111C43.8611 112.53 44.2296 114.197 44.2296 115.885C44.2296 117.573 43.8611 119.24 43.1498 120.77C42.4762 122.089 41.4339 123.183 40.1498 123.92C38.6919 124.682 37.0643 125.06 35.4198 125.02C33.785 125.06 32.1672 124.681 30.7198 123.92C29.4054 123.201 28.3336 122.108 27.6398 120.78C26.9286 119.25 26.5601 117.583 26.5601 115.895C26.5601 114.207 26.9286 112.54 27.6398 111.01C28.3306 109.68 29.4032 108.586 30.7198 107.87C32.1523 107.117 33.7519 106.739 35.3698 106.77V106.77ZM35.3698 109.26C34.317 109.238 33.2786 109.508 32.3698 110.04C31.509 110.582 30.8299 111.369 30.4198 112.3C29.938 113.434 29.7061 114.658 29.7398 115.89C29.7092 117.121 29.941 118.345 30.4198 119.48C30.8246 120.414 31.5049 121.203 32.3698 121.74C33.3049 122.252 34.3538 122.52 35.4198 122.52C36.4859 122.52 37.5348 122.252 38.4698 121.74C39.3378 121.206 40.019 120.417 40.4198 119.48C40.9069 118.347 41.1423 117.123 41.1098 115.89C41.1455 114.657 40.91 113.432 40.4198 112.3C40.0114 111.345 39.3159 110.541 38.4298 110C37.4995 109.471 36.4391 109.215 35.3698 109.26V109.26Z" fill="#FC1921"/>
<path d="M57.2499 107C58.9658 106.905 60.6619 107.406 62.0499 108.42C62.6304 108.873 63.0953 109.457 63.4065 110.125C63.7176 110.792 63.8662 111.524 63.8399 112.26C63.877 112.999 63.7334 113.736 63.4215 114.407C63.1096 115.077 62.6388 115.662 62.0499 116.11C60.6429 117.078 58.9551 117.553 57.2499 117.46L56.9699 117.63H52.6099V124.71H49.6099V107H57.2499ZM57.0199 115.24C57.9914 115.316 58.9603 115.063 59.7699 114.52C60.0811 114.253 60.3249 113.917 60.4813 113.538C60.6377 113.159 60.7023 112.749 60.6699 112.34C60.6991 111.932 60.633 111.522 60.4768 111.144C60.3206 110.766 60.0786 110.429 59.7699 110.16C58.9603 109.617 57.9914 109.364 57.0199 109.44H52.6099V115.24H57.0199ZM58.8199 115.83L64.9499 124.71H61.4399L56.1999 117L58.8199 115.83Z" fill="#FC1921"/>
<path d="M69.5298 124.75V107H83.1498V109.47H72.5798V114.57H80.8498V117H72.5798V122.26H83.5798V124.73L69.5298 124.75Z" fill="#FC1921"/>
<path d="M15.93 131V133.47H9.49V148.71H6.49V133.51H0V131H15.93Z" fill="#3A53A5"/>
<path d="M20.3799 148.75V131H33.9999V133.47H23.4299V138.57H31.6899V141H23.4299V146.26H34.4299V148.73L20.3799 148.75Z" fill="#3A53A5"/>
<path d="M54.5498 144.05C54.1998 145.081 53.6143 146.015 52.8398 146.78C52.0731 147.523 51.1558 148.093 50.1498 148.45C48.8318 148.903 47.4371 149.089 46.0466 148.998C44.6561 148.907 43.2975 148.54 42.0498 147.92C40.7383 147.2 39.6699 146.107 38.9798 144.78C38.2619 143.252 37.8896 141.584 37.8896 139.895C37.8896 138.206 38.2619 136.538 38.9798 135.01C39.6669 133.681 40.7361 132.587 42.0498 131.87C43.4909 131.112 45.1017 130.733 46.7298 130.77C47.8645 130.756 48.9946 130.918 50.0798 131.25C51.0227 131.548 51.8917 132.042 52.6298 132.7C53.3472 133.373 53.9013 134.2 54.2498 135.12L51.3698 136.32C51.0798 135.394 50.5061 134.582 49.7298 134C48.8862 133.474 47.903 133.216 46.9098 133.26C45.8578 133.245 44.8213 133.515 43.9098 134.04C43.0375 134.583 42.3424 135.368 41.9098 136.3C41.3996 137.426 41.1533 138.654 41.1898 139.89C41.1542 141.122 41.3862 142.347 41.8698 143.48C42.2878 144.421 42.9863 145.211 43.8698 145.74C44.8007 146.28 45.8639 146.55 46.9398 146.52C48.0011 146.544 49.0455 146.252 49.9398 145.68C50.817 145.066 51.4561 144.169 51.7498 143.14L54.5498 144.05Z" fill="#3A53A5"/>
<path d="M62.2998 131V148.71H59.2998V131H62.2998ZM73.1498 138.55V141H60.7898V138.53L73.1498 138.55ZM74.6598 131V148.71H71.5898V131H74.6598Z" fill="#3A53A5"/>
</g>
<defs>
<clipPath id="clip0_498_1096">
<rect width="83.55" height="149.02" fill="white"/>
</clipPath>
</defs>
</svg>
