<svg width="100" height="100" viewBox="0 0 100 100" fill="none" xmlns="http://www.w3.org/2000/svg">
<circle cx="50" cy="50" r="50" fill="#10217D"/>
<path d="M64.2753 68.78H36.5753C35.6457 68.7504 34.7617 68.3699 34.1012 67.715C33.4407 67.0601 33.0528 66.1794 33.0153 65.25L30.0153 35.6C29.9714 35.1676 30.0221 34.7308 30.1636 34.3198C30.3052 33.9089 30.5344 33.5336 30.8353 33.22C31.1824 32.8376 31.6052 32.5316 32.0769 32.3216C32.5486 32.1116 33.059 32.002 33.5753 32H67.2053C67.7232 32.0019 68.235 32.1113 68.7084 32.3213C69.1818 32.5313 69.6064 32.8373 69.9553 33.22C70.2535 33.5355 70.4809 33.911 70.6223 34.3214C70.7637 34.7319 70.8159 35.1678 70.7753 35.6L67.7753 65.25C67.7366 66.1687 67.3563 67.0398 66.7089 67.6928C66.0615 68.3457 65.1937 68.7335 64.2753 68.78ZM33.5753 32.69C33.1549 32.6945 32.7398 32.7856 32.3562 32.9577C31.9725 33.1298 31.6284 33.379 31.3453 33.69C31.1152 33.9364 30.9393 34.2284 30.8291 34.5471C30.7188 34.8658 30.6767 35.204 30.7053 35.54L33.7053 65.19C33.7299 65.9462 34.0392 66.6652 34.5714 67.203C35.1036 67.7408 35.8194 68.0576 36.5753 68.09H64.2753C65.0313 68.0576 65.747 67.7408 66.2792 67.203C66.8115 66.6652 67.1208 65.9462 67.1453 65.19L70.1453 35.54C70.1716 35.2042 70.1283 34.8666 70.0181 34.5483C69.908 34.23 69.7334 33.9378 69.5053 33.69C69.2189 33.3806 68.8727 33.1325 68.4877 32.9606C68.1027 32.7887 67.6869 32.6967 67.2653 32.69H33.5753Z" fill="white"/>
<path d="M55.8354 50.24H45.0153C44.6009 50.2304 44.2054 50.0641 43.9085 49.7747C43.6117 49.4852 43.4355 49.0941 43.4154 48.68L42.2553 37.09C42.2357 36.894 42.2586 36.696 42.3225 36.5096C42.3863 36.3232 42.4896 36.1528 42.6253 36.01C42.7805 35.8374 42.9702 35.6993 43.182 35.6046C43.3939 35.5098 43.6233 35.4606 43.8554 35.46H56.9853C57.2177 35.4587 57.4477 35.5071 57.6598 35.602C57.872 35.6968 58.0614 35.8359 58.2154 36.01C58.3523 36.1523 58.4571 36.3224 58.5226 36.5087C58.5882 36.695 58.613 36.8933 58.5954 37.09L57.4353 48.68C57.4129 49.0933 57.236 49.4831 56.9396 49.7721C56.6432 50.061 56.2491 50.228 55.8354 50.24ZM43.8354 36.16C43.7023 36.1618 43.571 36.1902 43.4491 36.2434C43.3272 36.2967 43.2171 36.3737 43.1253 36.47C43.0535 36.5433 42.9984 36.6314 42.9639 36.7281C42.9294 36.8247 42.9162 36.9277 42.9253 37.03L44.0854 48.61C44.0988 48.8498 44.1982 49.0768 44.3653 49.2494C44.5324 49.4221 44.756 49.5287 44.9953 49.55H55.8153C56.0528 49.5265 56.2741 49.4188 56.4392 49.2464C56.6042 49.074 56.7022 48.8483 56.7154 48.61L57.8753 37.03C57.8839 36.9286 57.8714 36.8265 57.8387 36.7302C57.806 36.6338 57.7538 36.5453 57.6853 36.47C57.5924 36.3725 57.4807 36.2948 57.357 36.2415C57.2332 36.1882 57.1001 36.1605 56.9654 36.16H43.8354Z" fill="white"/>
<path d="M50.7253 48.6098C50.569 48.6247 50.4116 48.6247 50.2553 48.6098C49.6976 48.4959 49.1963 48.1928 48.8364 47.7518C48.4764 47.3109 48.2798 46.7591 48.2798 46.1899C48.2798 45.6206 48.4764 45.0689 48.8364 44.6279C49.1963 44.1869 49.6976 43.8838 50.2553 43.7699C50.5528 43.7147 50.8579 43.7147 51.1553 43.7699C51.761 43.8803 52.3032 44.2139 52.6749 44.7047C53.0466 45.1955 53.2208 45.8078 53.163 46.4208C53.1052 47.0337 52.8197 47.6027 52.3629 48.0154C51.906 48.4281 51.311 48.6545 50.6953 48.6499L50.7253 48.6098ZM50.4153 44.4099C50.0685 44.4759 49.7495 44.6447 49.4998 44.8943C49.2501 45.144 49.0813 45.463 49.0153 45.8099C48.9706 46.0374 48.9723 46.2716 49.0204 46.4985C49.0686 46.7253 49.162 46.9401 49.2953 47.1299C49.4238 47.3242 49.5901 47.4907 49.7842 47.6195C49.9783 47.7483 50.1963 47.8369 50.4253 47.8799C50.5351 47.8898 50.6455 47.8898 50.7553 47.8799C51.0759 47.8786 51.3901 47.7902 51.6644 47.6242C51.9387 47.4583 52.1628 47.2209 52.3127 46.9375C52.4626 46.6541 52.5327 46.3353 52.5156 46.0152C52.4984 45.6951 52.3946 45.3856 52.2153 45.1199C52.0858 44.9274 51.9191 44.7628 51.725 44.6357C51.531 44.5086 51.3135 44.4217 51.0853 44.3799C50.8625 44.3402 50.6337 44.3504 50.4153 44.4099Z" fill="white"/>
<path d="M50.3154 44.4204C50.2347 44.4216 50.1562 44.3942 50.0939 44.3429C50.0316 44.2916 49.9896 44.2198 49.9754 44.1404L48.9054 38.5804C48.8952 38.5363 48.8943 38.4905 48.9025 38.446C48.9108 38.4015 48.9281 38.3592 48.9534 38.3217C48.9788 38.2842 49.0116 38.2523 49.0497 38.228C49.0879 38.2037 49.1306 38.1875 49.1754 38.1804C49.2201 38.1702 49.2664 38.1691 49.3115 38.1773C49.3566 38.1855 49.3997 38.2027 49.438 38.2279C49.4763 38.2531 49.5091 38.2859 49.5344 38.3241C49.5598 38.3623 49.5771 38.4053 49.5854 38.4504L50.6654 44.0104C50.6803 44.1016 50.6595 44.1951 50.6074 44.2714C50.5552 44.3477 50.4758 44.401 50.3854 44.4204H50.3154Z" fill="white"/>
<path d="M59.3853 65.6201H41.4653C41.3724 65.6201 41.2834 65.5833 41.2178 65.5176C41.1521 65.452 41.1152 65.363 41.1152 65.2701V59.0101C41.1152 58.9642 41.1243 58.9187 41.1419 58.8762C41.1595 58.8338 41.1853 58.7952 41.2178 58.7627C41.2503 58.7302 41.2888 58.7044 41.3313 58.6868C41.3738 58.6692 41.4193 58.6602 41.4653 58.6602H59.3853C59.4763 58.6628 59.5628 58.7008 59.6263 58.7661C59.6898 58.8315 59.7253 58.919 59.7253 59.0101V65.2701C59.7253 65.3613 59.6898 65.4488 59.6263 65.5142C59.5628 65.5795 59.4763 65.6175 59.3853 65.6201ZM41.8152 64.9201H59.0353V59.3601H41.8152V64.9201Z" fill="white"/>
<path d="M46.1252 65.6201H41.4653C41.3724 65.6201 41.2834 65.5833 41.2178 65.5176C41.1521 65.452 41.1152 65.363 41.1152 65.2701V59.0101C41.1152 58.9642 41.1243 58.9187 41.1419 58.8762C41.1595 58.8338 41.1853 58.7952 41.2178 58.7627C41.2503 58.7302 41.2888 58.7044 41.3313 58.6868C41.3738 58.6692 41.4193 58.6602 41.4653 58.6602H46.1252C46.1712 58.6602 46.2168 58.6692 46.2592 58.6868C46.3017 58.7044 46.3402 58.7302 46.3727 58.7627C46.4052 58.7952 46.431 58.8338 46.4486 58.8762C46.4662 58.9187 46.4753 58.9642 46.4753 59.0101V65.2701C46.4753 65.363 46.4384 65.452 46.3727 65.5176C46.3071 65.5833 46.2181 65.6201 46.1252 65.6201ZM41.8152 64.9201H45.8152V59.3601H41.8152V64.9201Z" fill="white"/>
<path d="M50.7854 65.6201H46.1254C46.0325 65.6201 45.9435 65.5833 45.8779 65.5176C45.8122 65.452 45.7754 65.363 45.7754 65.2701V59.0101C45.7754 58.9642 45.7844 58.9187 45.802 58.8762C45.8196 58.8338 45.8454 58.7952 45.8779 58.7627C45.9104 58.7302 45.949 58.7044 45.9915 58.6868C46.0339 58.6692 46.0794 58.6602 46.1254 58.6602H50.7854C50.8314 58.6602 50.8768 58.6692 50.9193 58.6868C50.9618 58.7044 51.0003 58.7302 51.0328 58.7627C51.0653 58.7952 51.0912 58.8338 51.1088 58.8762C51.1264 58.9187 51.1354 58.9642 51.1354 59.0101V65.2701C51.1354 65.363 51.0985 65.452 51.0328 65.5176C50.9672 65.5833 50.8782 65.6201 50.7854 65.6201ZM46.4754 64.9201H50.4754V59.3601H46.4754V64.9201Z" fill="white"/>
<path d="M55.4453 65.6201H50.7853C50.6925 65.6201 50.6035 65.5833 50.5378 65.5176C50.4722 65.452 50.4353 65.363 50.4353 65.2701V59.0101C50.4353 58.9642 50.4444 58.9187 50.462 58.8762C50.4796 58.8338 50.5053 58.7952 50.5378 58.7627C50.5703 58.7302 50.6089 58.7044 50.6514 58.6868C50.6938 58.6692 50.7394 58.6602 50.7853 58.6602H55.4453C55.5364 58.6628 55.6228 58.7008 55.6863 58.7661C55.7498 58.8315 55.7854 58.919 55.7853 59.0101V65.2701C55.7854 65.3613 55.7498 65.4488 55.6863 65.5142C55.6228 65.5795 55.5364 65.6175 55.4453 65.6201ZM51.1353 64.9201H55.1353V59.3601H51.1353V64.9201Z" fill="white"/>
</svg>
