<svg width="100" height="100" viewBox="0 0 100 100" fill="none" xmlns="http://www.w3.org/2000/svg">
<circle cx="50" cy="50" r="50" fill="#10217D"/>
<path d="M67.3383 34.801C67.4447 34.801 67.5468 34.7588 67.622 34.6837C67.6973 34.6086 67.7396 34.5067 67.7396 34.4005C67.7396 34.2943 67.6973 34.1924 67.622 34.1173C67.5468 34.0422 67.4447 34 67.3383 34H51.7734C51.6669 34 51.5649 34.0422 51.4896 34.1173C51.4143 34.1924 51.3721 34.2943 51.3721 34.4005C51.3721 34.5067 51.4143 34.6086 51.4896 34.6837C51.5649 34.7588 51.6669 34.801 51.7734 34.801H53.6575V40.3262H46.8573V34.801H48.9642C49.0706 34.801 49.1727 34.7588 49.248 34.6837C49.3232 34.6086 49.3655 34.5067 49.3655 34.4005C49.3655 34.2943 49.3232 34.1924 49.248 34.1173C49.1727 34.0422 49.0706 34 48.9642 34H33.4013C33.2949 34 33.1928 34.0422 33.1175 34.1173C33.0423 34.1924 33 34.2943 33 34.4005C33 34.5067 33.0423 34.6086 33.1175 34.6837C33.1928 34.7588 33.2949 34.801 33.4013 34.801H35.2915V40.3262H33.4013C33.2949 40.3262 33.1928 40.3684 33.1175 40.4435C33.0423 40.5186 33 40.6205 33 40.7267V65.3586C33 65.4648 33.0423 65.5667 33.1175 65.6418C33.1928 65.7169 33.2949 65.7591 33.4013 65.7591H67.3383C67.4442 65.7592 67.5459 65.7174 67.6212 65.6429C67.6958 65.5678 67.7376 65.4663 67.7376 65.3606V40.7287C67.7376 40.6229 67.6958 40.5214 67.6212 40.4463C67.5459 40.3719 67.4442 40.3301 67.3383 40.3302H65.2294V34.801H67.3383ZM64.4328 43.2299H54.4602V41.1232H64.4328V43.2299ZM54.4622 44.031H64.4328V55.9924C64.433 56.6363 64.304 57.2736 64.0535 57.8669C63.8029 58.4602 63.4359 58.9975 62.974 59.4469C62.0319 60.3676 60.7659 60.8832 59.4475 60.8832C58.129 60.8832 56.863 60.3676 55.9209 59.4469C55.4589 58.9966 55.0917 58.4587 54.8408 57.8648C54.59 57.2709 54.4606 56.633 54.4602 55.9884L54.4622 44.031ZM46.0587 34.805V40.3262H36.0901V34.801L46.0587 34.805ZM46.0587 43.2339H36.0901V41.1232H46.0587V43.2339ZM36.0901 44.035H46.0587V55.9965C46.0589 56.6403 45.93 57.2776 45.6794 57.8709C45.4289 58.4642 45.0618 59.0015 44.5999 59.4509C43.6582 60.3714 42.3925 60.887 41.0744 60.887C39.7562 60.887 38.4906 60.3714 37.5489 59.4509C37.087 59.0015 36.7199 58.4642 36.4694 57.8709C36.2188 57.2776 36.0899 56.6403 36.0901 55.9965V44.035ZM66.939 64.9621H33.7926V64.0068H66.939V64.9621ZM66.939 41.1312V63.2018H33.7926V41.1232H35.2855V55.9884C35.2858 56.7379 35.436 57.4797 35.7271 58.1705C36.0183 58.8613 36.4445 59.4873 36.981 60.0116C38.0727 61.0783 39.5396 61.6757 41.0674 61.6757C42.5951 61.6757 44.0621 61.0783 45.1537 60.0116C45.6908 59.4876 46.1177 58.8618 46.4092 58.171C46.7007 57.4801 46.851 56.7381 46.8513 55.9884V41.1232H53.6575V55.9884C53.6579 56.7379 53.8081 57.4797 54.0992 58.1705C54.3903 58.8613 54.8166 59.4873 55.3531 60.0116C56.4447 61.0783 57.9117 61.6757 59.4394 61.6757C60.9672 61.6757 62.4341 61.0783 63.5258 60.0116C64.0626 59.4875 64.4891 58.8617 64.7803 58.1708C65.0715 57.4799 65.2214 56.7379 65.2213 55.9884V41.1232L66.939 41.1312ZM64.4328 40.3302H54.4602V34.801H64.4328V40.3302Z" fill="white"/>
</svg>
