<svg width="100" height="100" viewBox="0 0 100 100" fill="none" xmlns="http://www.w3.org/2000/svg">
<circle cx="50" cy="50" r="50" fill="#D7BAAD"/>
<path d="M29.3663 36.3809H71.6456C71.7375 36.3864 71.8242 36.4252 71.8894 36.4899C71.9545 36.5547 71.9936 36.6408 71.9992 36.7322V65.3551C72.0025 65.4027 71.9957 65.4504 71.9793 65.4952C71.9629 65.5399 71.9372 65.5808 71.9038 65.615C71.8705 65.6492 71.8302 65.6761 71.7858 65.6939C71.7413 65.7117 71.6935 65.7199 71.6456 65.7182H29.3663C29.3174 65.7217 29.2683 65.7147 29.2224 65.6977C29.1765 65.6807 29.1347 65.654 29.1001 65.6196C29.0654 65.5852 29.0386 65.5437 29.0215 65.4981C29.0044 65.4525 28.9974 65.4037 29.0009 65.3551V36.7322C29.0067 36.6389 29.0474 36.5512 29.115 36.4862C29.1826 36.4211 29.2722 36.3836 29.3663 36.3809V36.3809ZM71.2802 37.0953H29.7788V65.0038H71.2802V37.0953Z" fill="#10217D"/>
<path d="M36.6389 27H64.3615C64.4556 27.0027 64.5452 27.0403 64.6128 27.1053C64.6804 27.1703 64.7211 27.2581 64.7269 27.3514V36.7207C64.7213 36.8152 64.681 36.9043 64.6137 36.9712C64.5463 37.0381 64.4566 37.0782 64.3615 37.0837H36.6389C36.5439 37.0782 36.4542 37.0381 36.3868 36.9712C36.3195 36.9043 36.2792 36.8152 36.2736 36.7207V27.3514C36.2819 27.259 36.3234 27.1727 36.3905 27.1082C36.4575 27.0436 36.5457 27.0053 36.6389 27V27ZM64.0079 27.7144H37.0633V36.381H64.0079V27.7144Z" fill="#10217D"/>
<path d="M49.4511 44.801H51.5256C51.6293 44.7974 51.7306 44.8328 51.8093 44.9001C51.8879 44.9674 51.9381 45.0616 51.9499 45.1641V49.6496H56.4054C56.5067 49.6431 56.6065 49.6762 56.6836 49.7418C56.7607 49.8075 56.8089 49.9005 56.8179 50.0009V52.0973C56.8179 52.3315 56.6411 52.4486 56.4054 52.4486H51.9499V56.9341C51.9499 57.1684 51.7731 57.2972 51.5256 57.2972H49.4276C49.3791 57.2989 49.3309 57.2906 49.2858 57.2729C49.2407 57.2552 49.1998 57.2285 49.1655 57.1945C49.1312 57.1605 49.1044 57.1198 49.0866 57.075C49.0688 57.0302 49.0605 56.9823 49.0622 56.9341V52.4486H44.5596C44.5118 52.452 44.4637 52.4452 44.4187 52.4289C44.3736 52.4126 44.3325 52.387 44.2981 52.3539C44.2636 52.3208 44.2366 52.2808 44.2187 52.2366C44.2008 52.1924 44.1924 52.1449 44.1942 52.0973V50.0009C44.2 49.9077 44.2408 49.8199 44.3084 49.7549C44.376 49.6899 44.4656 49.6524 44.5596 49.6496H49.0622V45.1641C49.0678 45.0696 49.1081 44.9805 49.1754 44.9135C49.2427 44.8466 49.3325 44.8066 49.4276 44.801H49.4511ZM51.1956 45.5154H49.8047V50.0009C49.7995 50.0935 49.7608 50.1812 49.6959 50.2478C49.631 50.3145 49.5441 50.3557 49.4511 50.364H44.9368V51.7343H49.4511C49.545 51.7401 49.6333 51.7805 49.6988 51.8477C49.7642 51.9148 49.802 52.0039 49.8047 52.0973V56.5711H51.1956V52.0973C51.1983 52.0039 51.2361 51.9148 51.3015 51.8477C51.367 51.7805 51.4553 51.7401 51.5492 51.7343H56.0635V50.364H51.5256C51.4326 50.3557 51.3457 50.3145 51.2808 50.2478C51.2159 50.1812 51.1773 50.0935 51.172 50.0009L51.1956 45.5154Z" fill="#10217D"/>
</svg>
