<svg width="100" height="100" viewBox="0 0 100 100" fill="none" xmlns="http://www.w3.org/2000/svg">
<circle cx="50" cy="50" r="50" fill="#FC1921"/>
<path d="M23.46 37.7803H76.5549C76.6704 37.7872 76.7793 37.836 76.8611 37.9173C76.9429 37.9985 76.9919 38.1067 76.999 38.2215V74.1666C77.0032 74.2263 76.9947 74.2862 76.974 74.3424C76.9534 74.3986 76.9211 74.4499 76.8792 74.4929C76.8373 74.5359 76.7868 74.5696 76.7309 74.592C76.6751 74.6143 76.6151 74.6247 76.5549 74.6225H23.46C23.3986 74.6269 23.3369 74.6181 23.2793 74.5967C23.2216 74.5754 23.1692 74.5419 23.1257 74.4987C23.0822 74.4555 23.0485 74.4034 23.027 74.3461C23.0055 74.2888 22.9967 74.2276 23.0011 74.1666V38.2215C23.0084 38.1043 23.0595 37.9941 23.1444 37.9125C23.2293 37.8309 23.3419 37.7837 23.46 37.7803V37.7803ZM76.0961 38.6775H23.978V73.7254H76.0961V38.6775Z" fill="white"/>
<path d="M32.5929 26H67.4073C67.5254 26.0034 67.6379 26.0506 67.7228 26.1323C67.8077 26.2139 67.8588 26.3241 67.8662 26.4413V38.2074C67.8591 38.326 67.8085 38.4379 67.7239 38.522C67.6394 38.606 67.5267 38.6563 67.4073 38.6633H32.5929C32.4735 38.6563 32.3609 38.606 32.2763 38.522C32.1917 38.4379 32.1411 38.326 32.134 38.2074V26.4413C32.1445 26.3252 32.1966 26.2168 32.2808 26.1358C32.3651 26.0548 32.4758 26.0066 32.5929 26V26ZM66.9632 26.8972H33.1258V37.7808H66.9632V26.8972Z" fill="white"/>
<path d="M48.6826 48.3548H51.2877C51.418 48.3503 51.5452 48.3947 51.644 48.4792C51.7427 48.5637 51.8058 48.6821 51.8206 48.8107V54.4437H57.4158C57.543 54.4355 57.6684 54.4771 57.7652 54.5595C57.862 54.642 57.9225 54.7588 57.9338 54.8849V57.5176C57.9338 57.8117 57.7118 57.9588 57.4158 57.9588H51.8206V63.5917C51.8206 63.8859 51.5986 64.0477 51.2877 64.0477H48.653C48.5922 64.0497 48.5316 64.0393 48.4749 64.0171C48.4183 63.9949 48.3669 63.9615 48.3239 63.9187C48.2809 63.8759 48.2472 63.8249 48.2248 63.7686C48.2025 63.7124 48.192 63.6522 48.1941 63.5917V57.9588H42.5397C42.4796 57.963 42.4194 57.9545 42.3628 57.934C42.3062 57.9135 42.2546 57.8814 42.2113 57.8398C42.168 57.7982 42.1341 57.748 42.1116 57.6925C42.0891 57.637 42.0786 57.5774 42.0809 57.5176V54.8849C42.0882 54.7678 42.1393 54.6576 42.2242 54.5759C42.3091 54.4943 42.4216 54.4472 42.5397 54.4437H48.1941V48.8107C48.2012 48.6921 48.2517 48.5801 48.3363 48.4961C48.4209 48.4121 48.5336 48.3618 48.653 48.3548H48.6826ZM50.8733 49.2519H49.1266V54.8849C49.12 55.0012 49.0715 55.1113 48.99 55.195C48.9084 55.2787 48.7993 55.3305 48.6826 55.3409H43.0134V57.0616H48.6826C48.8005 57.0689 48.9114 57.1197 48.9936 57.2041C49.0757 57.2884 49.1232 57.4002 49.1266 57.5176V63.1358H50.8733V57.5176C50.8767 57.4002 50.9242 57.2884 51.0064 57.2041C51.0885 57.1197 51.1994 57.0689 51.3173 57.0616H56.9865V55.3409H51.2877C51.171 55.3305 51.0619 55.2787 50.9803 55.195C50.8988 55.1113 50.8503 55.0012 50.8437 54.8849L50.8733 49.2519Z" fill="white"/>
</svg>
