<svg width="100" height="100" viewBox="0 0 100 100" fill="none" xmlns="http://www.w3.org/2000/svg">
<circle cx="50" cy="50" r="50" fill="#D7BAAD"/>
<path d="M38.9773 56.6522C39.1115 56.6522 39.2402 56.5993 39.3352 56.5052C39.4301 56.4111 39.4834 56.2834 39.4834 56.1503C39.4834 56.0172 39.4301 55.8896 39.3352 55.7954C39.2402 55.7013 39.1115 55.6484 38.9773 55.6484H35.9178C35.7836 55.6484 35.6548 55.7013 35.5599 55.7954C35.465 55.8896 35.4117 56.0172 35.4117 56.1503C35.4117 56.2834 35.465 56.4111 35.5599 56.5052C35.6548 56.5993 35.7836 56.6522 35.9178 56.6522H38.9773Z" fill="#10217D"/>
<path d="M35.9178 53.8925H38.9773C39.1115 53.8925 39.2402 53.8396 39.3352 53.7454C39.4301 53.6513 39.4834 53.5237 39.4834 53.3906C39.4834 53.2575 39.4301 53.1298 39.3352 53.0357C39.2402 52.9415 39.1115 52.8887 38.9773 52.8887H35.9178C35.7836 52.8887 35.6548 52.9415 35.5599 53.0357C35.465 53.1298 35.4117 53.2575 35.4117 53.3906C35.4117 53.5237 35.465 53.6513 35.5599 53.7454C35.6548 53.8396 35.7836 53.8925 35.9178 53.8925V53.8925Z" fill="#10217D"/>
<path d="M42.2821 50.9125H49.4107L51.754 57.9515C51.7878 58.0483 51.8507 58.1326 51.9343 58.1929C52.0179 58.2533 52.1181 58.2868 52.2214 58.2889C52.3248 58.2911 52.4263 58.2619 52.5124 58.2052C52.5985 58.1484 52.665 58.0669 52.7029 57.9715L55.5524 50.5085L57.63 45.068L58.9408 50.5311L58.9813 50.6992C59.0084 50.808 59.0715 50.9047 59.1605 50.9738C59.2494 51.0429 59.3592 51.0805 59.4722 51.0806H66.2314C66.3656 51.0806 66.4943 51.0277 66.5893 50.9336C66.6842 50.8395 66.7375 50.7119 66.7375 50.5787C66.7375 50.4456 66.6842 50.318 66.5893 50.2238C66.4943 50.1297 66.3656 50.0769 66.2314 50.0769H59.8695L58.2297 43.2537C58.2043 43.1505 58.1465 43.058 58.0646 42.9894C57.9828 42.9209 57.8811 42.8798 57.7742 42.8723C57.6666 42.865 57.5595 42.892 57.4684 42.9493C57.3774 43.0066 57.3072 43.0913 57.2681 43.191L54.4845 50.4959L52.2652 56.3028L50.3242 50.4734L50.2534 50.26C50.2195 50.1608 50.1552 50.0745 50.0695 50.0133C49.9837 49.9521 49.8807 49.919 49.7751 49.9188H42.2821C42.1478 49.9188 42.0191 49.9716 41.9242 50.0658C41.8293 50.1599 41.7759 50.2875 41.7759 50.4206C41.7759 50.5538 41.8293 50.6814 41.9242 50.7755C42.0191 50.8697 42.1478 50.9225 42.2821 50.9225V50.9125Z" fill="#10217D"/>
<path d="M71.303 60.1276H69.0406C69.0761 60.0975 69.109 60.0649 69.1419 60.0323C69.4912 59.6872 69.7681 59.2769 69.9566 58.8251C70.1451 58.3732 70.2415 57.8889 70.2401 57.3999V38.8301C70.2408 38.3408 70.1441 37.8561 69.9557 37.4038C69.7672 36.9516 69.4907 36.5406 69.1418 36.1945C68.793 35.8483 68.3788 35.5738 67.9229 35.3866C67.4669 35.1995 66.9782 35.1033 66.4848 35.1036H40.5489C40.1276 34.031 39.4241 33.0899 38.5117 32.3783C37.5993 31.6667 36.5112 31.2106 35.3607 31.0573C34.2103 30.9041 33.0394 31.0594 31.9699 31.507C30.9005 31.9546 29.9715 32.6782 29.2797 33.6026C28.5879 34.5269 28.1585 35.6182 28.0362 36.7629C27.9138 37.9076 28.1031 39.0639 28.5842 40.1115C29.0653 41.1591 29.8207 42.0597 30.7718 42.7197C31.7229 43.3796 32.8349 43.7748 33.9922 43.864V57.4149C33.9921 57.9043 34.0893 58.3889 34.2782 58.841C34.4671 59.2932 34.744 59.7039 35.093 60.0498L35.1917 60.1427H33.5975C33.4632 60.1427 33.3345 60.1956 33.2396 60.2897C33.1447 60.3838 33.0914 60.5115 33.0914 60.6446C33.0914 60.7777 33.1447 60.9054 33.2396 60.9995C33.3345 61.0936 33.4632 61.1465 33.5975 61.1465H71.303C71.4372 61.1465 71.5659 61.0936 71.6608 60.9995C71.7558 60.9054 71.8091 60.7777 71.8091 60.6446C71.8091 60.5115 71.7558 60.3838 71.6608 60.2897C71.5659 60.1956 71.4372 60.1427 71.303 60.1427V60.1276ZM68.4282 36.8878C68.6845 37.1408 68.8878 37.4415 69.0263 37.7727C69.1649 38.1039 69.236 38.459 69.2355 38.8176V57.3873C69.2342 58.1104 68.9439 58.8034 68.4283 59.3147C67.9128 59.826 67.2139 60.1138 66.4848 60.1151H41.0576V36.0898H66.4848C66.8458 36.0889 67.2034 36.159 67.537 36.296C67.8706 36.4329 68.1735 36.6341 68.4282 36.8878V36.8878ZM30.6139 41.2793C29.7152 40.3888 29.1557 39.2167 29.0307 37.9629C28.9057 36.7091 29.2231 35.4511 29.9286 34.4034C30.6342 33.3556 31.6843 32.5828 32.9 32.2168C34.1157 31.8507 35.4218 31.914 36.5957 32.3959C37.7696 32.8778 38.7387 33.7484 39.3379 34.8595C39.937 35.9705 40.1291 37.2532 39.8814 38.4889C39.6337 39.7246 38.9616 40.837 37.9796 41.6364C36.9975 42.4357 35.7663 42.8727 34.4958 42.8728C33.7748 42.8738 33.0607 42.7336 32.3946 42.4601C31.7284 42.1866 31.1233 41.7854 30.6139 41.2793V41.2793ZM34.9994 57.3999V43.849C36.0293 43.7711 37.0256 43.451 37.9057 42.9151C38.7859 42.3791 39.5246 41.6429 40.0605 40.7674V60.1251H37.7501C37.0206 60.1251 36.3209 59.8378 35.8051 59.3262C35.2892 58.8146 34.9994 58.1208 34.9994 57.3974V57.3999Z" fill="#10217D"/>
<path d="M35.9734 41.325C36.0684 41.2313 36.1221 41.1041 36.1227 40.9712V39.0439H38.0662C38.2004 39.0439 38.3291 38.9911 38.424 38.897C38.5189 38.8028 38.5723 38.6752 38.5723 38.5421V36.3137C38.5724 36.1812 38.5196 36.054 38.4255 35.9599C38.3302 35.8674 38.202 35.816 38.0687 35.8168H36.1227V33.8871C36.1221 33.7542 36.0684 33.6269 35.9734 33.5332C35.8791 33.4405 35.7519 33.3882 35.6191 33.3877H33.372C33.2392 33.3882 33.112 33.4405 33.0177 33.5332C32.9226 33.6269 32.8689 33.7542 32.8684 33.8871V35.8168H30.9249C30.7916 35.816 30.6634 35.8674 30.5681 35.9599C30.474 36.054 30.4212 36.1812 30.4213 36.3137V38.5421C30.4213 38.6752 30.4746 38.8028 30.5696 38.897C30.6645 38.9911 30.7932 39.0439 30.9274 39.0439H32.8709V40.9712C32.8709 41.1043 32.9242 41.232 33.0191 41.3261C33.1141 41.4202 33.2428 41.4731 33.377 41.4731H35.6242C35.7555 41.4706 35.8808 41.4175 35.9734 41.325V41.325ZM35.1155 38.5446V40.4743H33.8755V38.5446C33.8755 38.4115 33.8222 38.2838 33.7273 38.1897C33.6324 38.0956 33.5037 38.0427 33.3694 38.0427H31.4285V36.8131H33.372C33.5062 36.8131 33.6349 36.7602 33.7298 36.6661C33.8248 36.5719 33.8781 36.4443 33.8781 36.3112V34.3839H35.118V36.3112C35.118 36.4443 35.1714 36.5719 35.2663 36.6661C35.3612 36.7602 35.4899 36.8131 35.6242 36.8131H37.5676V38.0427H35.6191C35.4849 38.0427 35.3561 38.0956 35.2612 38.1897C35.1663 38.2838 35.113 38.4115 35.113 38.5446H35.1155Z" fill="#10217D"/>
</svg>
