<svg width="100" height="100" viewBox="0 0 100 100" fill="none" xmlns="http://www.w3.org/2000/svg">
<circle cx="50" cy="50" r="50" fill="#FC1921"/>
<path d="M34.2011 61.1863C34.3748 61.1863 34.5413 61.1179 34.6641 60.9961C34.7869 60.8743 34.8559 60.7092 34.8559 60.537C34.8559 60.3648 34.7869 60.1996 34.6641 60.0779C34.5413 59.9561 34.3748 59.8877 34.2011 59.8877H30.2431C30.0695 59.8877 29.9029 59.9561 29.7802 60.0779C29.6574 60.1996 29.5884 60.3648 29.5884 60.537C29.5884 60.7092 29.6574 60.8743 29.7802 60.9961C29.9029 61.1179 30.0695 61.1863 30.2431 61.1863H34.2011Z" fill="white"/>
<path d="M30.2431 57.616H34.2011C34.3748 57.616 34.5413 57.5475 34.6641 57.4258C34.7869 57.304 34.8559 57.1389 34.8559 56.9667C34.8559 56.7945 34.7869 56.6293 34.6641 56.5075C34.5413 56.3858 34.3748 56.3174 34.2011 56.3174H30.2431C30.0695 56.3174 29.9029 56.3858 29.7802 56.5075C29.6574 56.6293 29.5884 56.7945 29.5884 56.9667C29.5884 57.1389 29.6574 57.304 29.7802 57.4258C29.9029 57.5475 30.0695 57.616 30.2431 57.616V57.616Z" fill="white"/>
<path d="M38.4763 53.7605H47.6985L50.73 62.8666C50.7737 62.992 50.8551 63.1009 50.9633 63.179C51.0714 63.2571 51.201 63.3004 51.3347 63.3032C51.4684 63.3061 51.5997 63.2682 51.7111 63.1948C51.8225 63.1214 51.9085 63.016 51.9576 62.8926L55.6439 53.2378L58.3316 46.1995L60.0274 53.267L60.0798 53.4845C60.1149 53.6253 60.1965 53.7503 60.3116 53.8398C60.4267 53.9292 60.5687 53.9778 60.7149 53.978H69.4591C69.6328 53.978 69.7993 53.9095 69.9221 53.7878C70.0449 53.666 70.1139 53.5009 70.1139 53.3287C70.1139 53.1565 70.0449 52.9913 69.9221 52.8696C69.7993 52.7478 69.6328 52.6794 69.4591 52.6794H61.2289L59.1075 43.8524C59.0746 43.7189 58.9998 43.5992 58.8939 43.5105C58.788 43.4218 58.6565 43.3687 58.5182 43.3589C58.379 43.3495 58.2404 43.3844 58.1227 43.4586C58.0049 43.5328 57.9141 43.6423 57.8635 43.7712L54.2623 53.2215L51.3913 60.7337L48.8803 53.1923L48.7886 52.9164C48.7449 52.7879 48.6617 52.6763 48.5507 52.5971C48.4398 52.5179 48.3066 52.4752 48.1699 52.4749H38.4763C38.3026 52.4749 38.1361 52.5433 38.0133 52.665C37.8905 52.7868 37.8215 52.952 37.8215 53.1242C37.8215 53.2964 37.8905 53.4615 38.0133 53.5833C38.1361 53.705 38.3026 53.7734 38.4763 53.7734V53.7605Z" fill="white"/>
<path d="M76.0203 65.6819H73.0936C73.1394 65.643 73.182 65.6008 73.2245 65.5586C73.6765 65.1121 74.0347 64.5813 74.2786 63.9968C74.5224 63.4123 74.6471 62.7857 74.6453 62.1531V38.1297C74.6462 37.4966 74.5212 36.8696 74.2774 36.2845C74.0335 35.6995 73.6758 35.1678 73.2245 34.72C72.7733 34.2722 72.2374 33.9171 71.6475 33.6749C71.0577 33.4328 70.4255 33.3083 69.7871 33.3088H36.2344C35.6893 31.9212 34.7792 30.7037 33.5988 29.7831C32.4184 28.8625 31.0108 28.2724 29.5225 28.0742C28.0341 27.8759 26.5194 28.0768 25.1359 28.6559C23.7523 29.235 22.5505 30.1711 21.6556 31.3669C20.7606 32.5627 20.205 33.9745 20.0468 35.4554C19.8885 36.9363 20.1334 38.4321 20.7557 39.7874C21.3781 41.1427 22.3554 42.3078 23.5858 43.1615C24.8162 44.0153 26.2549 44.5265 27.7521 44.642V62.1726C27.7519 62.8057 27.8776 63.4326 28.122 64.0175C28.3663 64.6024 28.7246 65.1338 29.1761 65.5813L29.3038 65.7014H27.2414C27.0677 65.7014 26.9012 65.7698 26.7784 65.8916C26.6556 66.0134 26.5866 66.1785 26.5866 66.3507C26.5866 66.5229 26.6556 66.6881 26.7784 66.8098C26.9012 66.9316 27.0677 67 27.2414 67H76.0203C76.194 67 76.3605 66.9316 76.4833 66.8098C76.6061 66.6881 76.6751 66.5229 76.6751 66.3507C76.6751 66.1785 76.6061 66.0134 76.4833 65.8916C76.3605 65.7698 76.194 65.7014 76.0203 65.7014V65.6819ZM72.3013 35.617C72.6329 35.9442 72.8958 36.3333 73.0751 36.7617C73.2543 37.1902 73.3463 37.6496 73.3457 38.1134V62.1369C73.3439 63.0722 72.9685 63.9688 72.3015 64.6302C71.6345 65.2917 70.7304 65.664 69.7871 65.6657H36.8924V34.5846H69.7871C70.2542 34.5835 70.7168 34.6741 71.1484 34.8513C71.5799 35.0285 71.9718 35.2887 72.3013 35.617V35.617ZM23.3816 41.2982C22.2189 40.1461 21.4951 38.6298 21.3334 37.0078C21.1718 35.3858 21.5823 33.7584 22.495 32.4029C23.4078 31.0474 24.7663 30.0477 26.339 29.5741C27.9118 29.1006 29.6015 29.1825 31.1201 29.8059C32.6388 30.4293 33.8925 31.5556 34.6676 32.9929C35.4427 34.4302 35.6912 36.0896 35.3708 37.6883C35.0504 39.2869 34.1808 40.7259 32.9104 41.7601C31.6399 42.7942 30.0472 43.3595 28.4035 43.3596C27.4708 43.3609 26.547 43.1795 25.6852 42.8257C24.8233 42.472 24.0405 41.9528 23.3816 41.2982V41.2982ZM29.055 62.1531V44.6225C30.3873 44.5218 31.6762 44.1076 32.8149 43.4143C33.9535 42.721 34.9092 41.7686 35.6025 40.6359V65.6787H32.6136C31.6698 65.6787 30.7647 65.3069 30.0973 64.6451C29.4299 63.9833 29.055 63.0858 29.055 62.1498V62.1531Z" fill="white"/>
<path d="M30.3152 41.3573C30.4381 41.236 30.5076 41.0714 30.5083 40.8995V38.4063H33.0226C33.1962 38.4063 33.3627 38.3379 33.4855 38.2161C33.6083 38.0943 33.6773 37.9292 33.6773 37.757V34.8742C33.6774 34.7027 33.6092 34.5382 33.4874 34.4164C33.3641 34.2969 33.1983 34.2304 33.0258 34.2314H30.5083V31.7349C30.5076 31.563 30.4381 31.3984 30.3152 31.2772C30.1932 31.1572 30.0286 31.0896 29.8568 31.0889H26.9498C26.778 31.0896 26.6134 31.1572 26.4914 31.2772C26.3685 31.3984 26.299 31.563 26.2983 31.7349V34.2314H23.784C23.6116 34.2304 23.4457 34.2969 23.3224 34.4164C23.2007 34.5382 23.1324 34.7027 23.1326 34.8742V37.757C23.1326 37.9292 23.2016 38.0943 23.3243 38.2161C23.4471 38.3379 23.6137 38.4063 23.7873 38.4063H26.3016V40.8995C26.3016 41.0717 26.3705 41.2369 26.4933 41.3586C26.6161 41.4804 26.7827 41.5488 26.9563 41.5488H29.8634C30.0333 41.5455 30.1954 41.4768 30.3152 41.3573V41.3573ZM29.2054 37.7602V40.2567H27.6012V37.7602C27.6012 37.588 27.5322 37.4229 27.4095 37.3011C27.2867 37.1794 27.1201 37.1109 26.9465 37.1109H24.4355V35.5202H26.9498C27.1234 35.5202 27.2899 35.4518 27.4127 35.33C27.5355 35.2083 27.6045 35.0431 27.6045 34.8709V32.3777H29.2086V34.8709C29.2086 35.0431 29.2776 35.2083 29.4004 35.33C29.5232 35.4518 29.6897 35.5202 29.8634 35.5202H32.3776V37.1109H29.8568C29.6832 37.1109 29.5167 37.1794 29.3939 37.3011C29.2711 37.4229 29.2021 37.588 29.2021 37.7602H29.2054Z" fill="white"/>
</svg>
