<svg width="100" height="100" viewBox="0 0 100 100" fill="none" xmlns="http://www.w3.org/2000/svg">
<circle cx="50" cy="50" r="50" fill="#FC1921"/>
<path d="M75.4108 27.1685C75.5671 27.1685 75.717 27.1069 75.8274 26.9973C75.9379 26.8878 76 26.7392 76 26.5842C76 26.4293 75.9379 26.2807 75.8274 26.1711C75.717 26.0616 75.5671 26 75.4108 26H52.5606C52.4043 26 52.2545 26.0616 52.144 26.1711C52.0335 26.2807 51.9714 26.4293 51.9714 26.5842C51.9714 26.7392 52.0335 26.8878 52.144 26.9973C52.2545 27.1069 52.4043 27.1685 52.5606 27.1685H55.3266V35.228H45.3434V27.1685H48.4365C48.5927 27.1685 48.7426 27.1069 48.8531 26.9973C48.9636 26.8878 49.0256 26.7392 49.0256 26.5842C49.0256 26.4293 48.9636 26.2807 48.8531 26.1711C48.7426 26.0616 48.5927 26 48.4365 26H25.5892C25.4329 26 25.2831 26.0616 25.1726 26.1711C25.0621 26.2807 25 26.4293 25 26.5842C25 26.7392 25.0621 26.8878 25.1726 26.9973C25.2831 27.1069 25.4329 27.1685 25.5892 27.1685H28.3641V35.228H25.5892C25.4329 35.228 25.2831 35.2895 25.1726 35.3991C25.0621 35.5086 25 35.6572 25 35.8122V71.7425C25 71.8975 25.0621 72.0461 25.1726 72.1556C25.2831 72.2652 25.4329 72.3267 25.5892 72.3267H75.4108C75.5664 72.3269 75.7157 72.266 75.8262 72.1573C75.9358 72.0478 75.9972 71.8997 75.9971 71.7454V35.8151C75.9972 35.6608 75.9358 35.5128 75.8262 35.4032C75.7157 35.2946 75.5664 35.2337 75.4108 35.2338H72.3148V27.1685H75.4108ZM71.1454 39.4636H56.5049V36.3906H71.1454V39.4636ZM56.5079 40.6321H71.1454V58.0802C71.1457 59.0194 70.9564 59.9491 70.5886 60.8145C70.2208 61.68 69.6819 62.4636 69.0038 63.1192C67.6208 64.4622 65.7623 65.2143 63.8266 65.2143C61.891 65.2143 60.0325 64.4622 58.6495 63.1192C57.9712 62.4624 57.4321 61.6777 57.0638 60.8114C56.6955 59.9451 56.5055 59.0145 56.5049 58.0744L56.5079 40.6321ZM44.171 27.1743V35.228H29.5365V27.1685L44.171 27.1743ZM44.171 39.4695H29.5365V36.3906H44.171V39.4695ZM29.5365 40.638H44.171V58.0861C44.1714 59.0252 43.982 59.9549 43.6142 60.8204C43.2464 61.6858 42.7076 62.4695 42.0295 63.1251C40.647 64.4678 38.7889 65.2198 36.8537 65.2198C34.9186 65.2198 33.0605 64.4678 31.678 63.1251C30.9999 62.4695 30.4611 61.6858 30.0933 60.8204C29.7255 59.9549 29.5361 59.0252 29.5365 58.0861V40.638ZM74.8246 71.1641H26.1636V69.7707H74.8246V71.1641ZM74.8246 36.4023V68.5964H26.1636V36.3906H28.3552V58.0744C28.3558 59.1676 28.5762 60.2497 29.0036 61.2574C29.431 62.265 30.0568 63.1781 30.8444 63.943C32.447 65.499 34.6006 66.3704 36.8434 66.3704C39.0863 66.3704 41.2399 65.499 42.8425 63.943C43.631 63.1786 44.2576 62.2658 44.6856 61.258C45.1135 60.2502 45.3342 59.1678 45.3346 58.0744V36.3906H55.3266V58.0744C55.3272 59.1676 55.5476 60.2497 55.975 61.2574C56.4024 62.265 57.0282 63.1781 57.8158 63.943C59.4184 65.499 61.572 66.3704 63.8149 66.3704C66.0577 66.3704 68.2113 65.499 69.8139 63.943C70.602 63.1785 71.2282 62.2655 71.6556 61.2577C72.0831 60.25 72.3032 59.1677 72.3031 58.0744V36.3906L74.8246 36.4023ZM71.1454 35.2338H56.5049V27.1685H71.1454V35.2338Z" fill="white"/>
</svg>
