<svg width="100" height="100" viewBox="0 0 100 100" fill="none" xmlns="http://www.w3.org/2000/svg">
<circle cx="50" cy="50" r="50" fill="#FC1921"/>
<path d="M66.687 26.5267C66.7017 26.3994 66.7641 26.2822 66.8618 26.1986C66.9596 26.115 67.0855 26.071 67.2144 26.0755C67.33 26.0858 67.4379 26.137 67.5186 26.2199C67.5993 26.3027 67.6473 26.4116 67.6539 26.5267V75.098C67.6473 75.2131 67.5993 75.322 67.5186 75.4049C67.4379 75.4877 67.33 75.5389 67.2144 75.5492C67.0855 75.5537 66.9596 75.5098 66.8618 75.4262C66.7641 75.3425 66.7017 75.2254 66.687 75.098V26.5267Z" fill="white"/>
<path d="M76.4727 28.7532C76.7803 28.7532 77 28.8987 77 29.2044C76.9852 29.3305 76.9223 29.4461 76.8241 29.5274C76.726 29.6087 76.6002 29.6494 76.4727 29.641H24.4544C24.3385 29.6345 24.2289 29.5868 24.1455 29.5067C24.0622 29.4265 24.0106 29.3192 24.0003 29.2044C23.9982 29.1446 24.0086 29.085 24.0307 29.0293C24.0528 28.9737 24.0862 28.9232 24.1287 28.8808C24.1713 28.8385 24.2222 28.8053 24.2782 28.7834C24.3342 28.7614 24.3942 28.7512 24.4544 28.7532H76.4727Z" fill="white"/>
<path d="M76.4727 71.9835C76.6002 71.9752 76.726 72.0158 76.8241 72.0971C76.9223 72.1784 76.9852 72.2941 77 72.4202C77 72.7259 76.7803 72.8714 76.4727 72.8714H24.4544C24.3942 72.8734 24.3342 72.8632 24.2782 72.8412C24.2222 72.8192 24.1713 72.7861 24.1287 72.7437C24.0862 72.7014 24.0528 72.6509 24.0307 72.5952C24.0086 72.5396 23.9982 72.48 24.0003 72.4202C24.0106 72.3053 24.0622 72.198 24.1455 72.1179C24.2289 72.0377 24.3385 71.99 24.4544 71.9835H76.4727Z" fill="white"/>
<path d="M45.9004 41.7516C48.7308 42.5997 51.218 44.3169 53.0051 46.6568C54.8506 49.0947 55.8481 52.0629 55.847 55.1134C55.8606 56.9614 55.5036 58.7935 54.7969 60.5028C54.0902 62.2122 53.0478 63.7646 51.7307 65.0693C50.4224 66.3874 48.8635 67.434 47.1447 68.1483C45.4258 68.8627 43.5813 69.2305 41.7181 69.2305C39.855 69.2305 38.0105 68.8627 36.2917 68.1483C34.5728 67.434 33.014 66.3874 31.7057 65.0693C30.3912 63.7626 29.3506 62.2099 28.644 60.501C27.9374 58.7921 27.579 56.9609 27.5893 55.1134C27.5874 54.2927 27.6659 53.4738 27.8237 52.6682C27.9632 51.8558 28.1891 51.0605 28.4976 50.2956C29.223 48.2663 30.4193 46.4352 31.9895 44.9508C33.5598 43.4664 35.4599 42.3704 37.5359 41.7516V25.3332C37.5507 25.2071 37.6136 25.0915 37.7118 25.0102C37.8099 24.9289 37.9357 24.8883 38.0632 24.8966H45.3877C45.5136 24.8885 45.6377 24.9296 45.7335 25.0112C45.8293 25.0928 45.8892 25.2083 45.9004 25.3332V41.7516ZM52.258 47.2536C50.5216 44.9636 48.0856 43.2938 45.3145 42.494C45.2592 42.4904 45.2052 42.4757 45.1558 42.4508C45.1064 42.4259 45.0626 42.3913 45.027 42.3492C44.9914 42.307 44.9648 42.2581 44.9488 42.2055C44.9327 42.1528 44.9275 42.0975 44.9336 42.0428V25.7844H38.5028V42.0428C38.502 42.148 38.4654 42.2499 38.3989 42.3319C38.3324 42.4138 38.2399 42.471 38.1366 42.494C36.1255 43.0765 34.2793 44.1183 32.7457 45.536C31.2228 46.9314 30.0491 48.6609 29.3179 50.5867C29.0768 51.3176 28.8763 52.061 28.7172 52.8137C28.5715 53.5718 28.498 54.3417 28.4976 55.1134C28.5038 57.1854 29.0045 59.2264 29.9587 61.0687C30.9129 62.911 32.2933 64.5022 33.9866 65.7115C35.6799 66.9208 37.6378 67.7138 39.6993 68.0253C41.7609 68.3368 43.8675 68.158 45.846 67.5035C47.8245 66.849 49.6186 65.7376 51.0809 64.2604C52.5431 62.7832 53.6319 60.9824 54.2578 59.0059C54.8836 57.0294 55.0286 54.9337 54.681 52.8907C54.3334 50.8477 53.503 48.9158 52.258 47.2536V47.2536Z" fill="white"/>
<path d="M34.9138 22H48.5225C48.6384 22.0065 48.748 22.0542 48.8313 22.1344C48.9147 22.2146 48.9663 22.3219 48.9766 22.4367V25.3478C48.9697 25.4652 48.9196 25.576 48.8359 25.6591C48.7522 25.7423 48.6407 25.7921 48.5225 25.799H34.9138C34.7971 25.7918 34.6874 25.7415 34.6061 25.658C34.5248 25.5745 34.4778 25.4639 34.4744 25.3478V22.4367C34.4813 22.3231 34.5298 22.216 34.6108 22.1356C34.6918 22.0551 34.7995 22.0069 34.9138 22ZM47.9952 22.8879H35.4411V24.8383H47.9952V22.8879Z" fill="white"/>
</svg>
