<svg width="100" height="100" viewBox="0 0 100 100" fill="none" xmlns="http://www.w3.org/2000/svg">
<circle cx="50" cy="50" r="50" fill="#D7BAAD"/>
<path d="M63.75 26.8975C63.7626 26.7879 63.8163 26.687 63.9005 26.615C63.9847 26.543 64.093 26.5052 64.204 26.5091C64.3035 26.5179 64.3965 26.562 64.4659 26.6333C64.5354 26.7047 64.5767 26.7984 64.5824 26.8975V68.7133C64.5767 68.8124 64.5354 68.9062 64.4659 68.9775C64.3965 69.0488 64.3035 69.0929 64.204 69.1018C64.093 69.1056 63.9847 69.0678 63.9005 68.9958C63.8163 68.9238 63.7626 68.8229 63.75 68.7133V26.8975Z" fill="#10217D"/>
<path d="M72.1745 28.8137C72.4394 28.8137 72.6285 28.939 72.6285 29.2021C72.6158 29.3107 72.5616 29.4103 72.4771 29.4802C72.3926 29.5502 72.2843 29.5852 72.1745 29.5781H27.3912C27.2914 29.5724 27.1971 29.5314 27.1253 29.4624C27.0535 29.3934 27.0091 29.301 27.0002 29.2021C26.9985 29.1507 27.0074 29.0994 27.0264 29.0514C27.0454 29.0035 27.0742 28.96 27.1108 28.9236C27.1475 28.8872 27.1913 28.8586 27.2395 28.8397C27.2878 28.8208 27.3394 28.8119 27.3912 28.8137H72.1745Z" fill="#10217D"/>
<path d="M72.1745 66.0312C72.2843 66.024 72.3926 66.059 72.4771 66.129C72.5616 66.199 72.6158 66.2986 72.6285 66.4071C72.6285 66.6703 72.4394 66.7956 72.1745 66.7956H27.3912C27.3394 66.7974 27.2878 66.7885 27.2395 66.7696C27.1913 66.7507 27.1475 66.7221 27.1108 66.6857C27.0742 66.6493 27.0454 66.6058 27.0264 66.5579C27.0074 66.5099 26.9985 66.4586 27.0002 66.4071C27.0091 66.3083 27.0535 66.2159 27.1253 66.1469C27.1971 66.0779 27.2914 66.0368 27.3912 66.0312H72.1745Z" fill="#10217D"/>
<path d="M45.8545 40.0049C48.2912 40.735 50.4324 42.2134 51.971 44.2278C53.5598 46.3266 54.4186 48.882 54.4176 51.5083C54.4294 53.0992 54.122 54.6765 53.5136 56.1481C52.9051 57.6197 52.0077 58.9562 50.8738 60.0795C49.7475 61.2142 48.4054 62.1152 46.9257 62.7302C45.4459 63.3452 43.8579 63.6619 42.2539 63.6619C40.6499 63.6619 39.0619 63.3452 37.5821 62.7302C36.1024 62.1152 34.7603 61.2142 33.634 60.0795C32.5023 58.9545 31.6064 57.6177 30.9981 56.1465C30.3899 54.6753 30.0812 53.0988 30.0902 51.5083C30.0885 50.8017 30.1561 50.0966 30.2919 49.4031C30.412 48.7038 30.6065 48.0191 30.8721 47.3605C31.4966 45.6134 32.5265 44.037 33.8784 42.7591C35.2302 41.4812 36.8661 40.5376 38.6533 40.0049V25.87C38.666 25.7614 38.7202 25.6619 38.8047 25.5919C38.8892 25.5219 38.9975 25.4869 39.1073 25.4941H45.413C45.5214 25.4871 45.6283 25.5225 45.7108 25.5927C45.7933 25.663 45.8448 25.7625 45.8545 25.87V40.0049ZM51.3278 44.7416C49.8329 42.7701 47.7357 41.3325 45.35 40.644C45.3024 40.6409 45.256 40.6282 45.2134 40.6068C45.1709 40.5854 45.1332 40.5556 45.1025 40.5193C45.0719 40.483 45.049 40.4409 45.0352 40.3956C45.0213 40.3503 45.0169 40.3026 45.0221 40.2555V26.2584H39.4857V40.2555C39.4851 40.3461 39.4535 40.4338 39.3963 40.5044C39.339 40.5749 39.2594 40.6241 39.1704 40.644C37.4391 41.1455 35.8497 42.0423 34.5293 43.2629C33.2183 44.4642 32.2078 45.9532 31.5783 47.6112C31.3708 48.2404 31.1981 48.8804 31.0612 49.5284C30.9358 50.181 30.8725 50.8439 30.8721 51.5083C30.8774 53.2921 31.3085 55.0492 32.13 56.6352C32.9515 58.2213 34.1399 59.5912 35.5977 60.6323C37.0554 61.6734 38.741 62.3561 40.5159 62.6243C42.2907 62.8925 44.1043 62.7385 45.8076 62.1751C47.511 61.6116 49.0555 60.6547 50.3144 59.383C51.5733 58.1113 52.5106 56.5609 53.0494 54.8594C53.5882 53.1578 53.7131 51.3535 53.4138 49.5947C53.1146 47.8358 52.3996 46.1726 51.3278 44.7416V44.7416Z" fill="#10217D"/>
<path d="M36.3958 23H48.1117C48.2115 23.0056 48.3058 23.0467 48.3776 23.1157C48.4494 23.1847 48.4938 23.2771 48.5027 23.376V25.8822C48.4967 25.9833 48.4536 26.0786 48.3815 26.1502C48.3095 26.2218 48.2135 26.2647 48.1117 26.2706H36.3958C36.2953 26.2644 36.2008 26.2211 36.1308 26.1493C36.0608 26.0774 36.0204 25.9821 36.0175 25.8822V23.376C36.0234 23.2782 36.0652 23.186 36.1349 23.1167C36.2046 23.0475 36.2974 23.0059 36.3958 23ZM47.6577 23.7644H36.8498V25.4436H47.6577V23.7644Z" fill="#10217D"/>
</svg>
