<svg width="72" height="72" viewBox="0 0 72 72" fill="none" xmlns="http://www.w3.org/2000/svg">
<g clip-path="url(#clip0_204_19496)">
<path d="M42 57H30C29.172 57 28.5 57.672 28.5 58.5C28.5 59.328 29.172 60 30 60H42C42.828 60 43.5 59.328 43.5 58.5C43.5 57.672 42.828 57 42 57ZM42 63H30C29.172 63 28.5 63.672 28.5 64.5C28.5 65.328 29.172 66 30 66H42C42.828 66 43.5 65.328 43.5 64.5C43.5 63.672 42.828 63 42 63ZM42.75 69H29.25L32.814 71.346C33.276 71.76 33.954 72 34.659 72H37.344C38.046 72 38.727 71.76 39.189 71.346L42.75 69ZM54 27.603C54 38.31 44.358 45.552 44.358 54H38.391C38.382 48.426 41.001 43.833 43.554 39.399C45.837 35.424 48 31.668 48 27.603C48 19.827 41.775 16.287 35.991 16.287C30.216 16.287 24 19.827 24 27.603C24 31.668 26.163 35.424 28.446 39.399C30.999 43.833 33.621 48.426 33.606 54H27.642C27.642 45.552 18 38.31 18 27.603C18 16.434 26.994 10.287 35.991 10.287C44.994 10.287 54 16.44 54 27.603ZM66 25.53V29.646H58.386C58.446 28.977 58.5 28.302 58.5 27.603C58.5 26.892 58.449 26.211 58.395 25.533H66V25.53ZM34.056 5.871V0H38.169V5.892C37.443 5.826 36.717 5.787 35.991 5.787C35.346 5.787 34.701 5.817 34.056 5.871ZM22.827 9.753L19.707 3.933L23.331 1.989L26.442 7.788C25.188 8.331 23.976 8.991 22.827 9.753ZM54.585 14.958L60.411 10.776L62.808 14.121L56.646 18.54C56.073 17.25 55.377 16.059 54.585 14.958ZM45.555 7.791L48.669 1.989L52.293 3.933L49.17 9.756C48.024 8.994 46.812 8.337 45.555 7.791ZM15.351 18.54L9.189 14.124L11.586 10.779L17.412 14.958C16.62 16.056 15.927 17.247 15.351 18.54ZM56.472 37.209L63.534 40.071L61.992 43.884L54.717 40.938C55.347 39.747 55.941 38.502 56.472 37.209ZM17.148 40.674L10.08 43.854L8.394 40.101L15.414 36.945C15.933 38.244 16.527 39.48 17.148 40.674ZM13.614 29.646H6V25.53H13.605C13.551 26.208 13.5 26.892 13.5 27.603C13.5 28.302 13.554 28.977 13.614 29.646Z" fill="#10217D"/>
</g>
<defs>
<clipPath id="clip0_204_19496">
<rect width="72" height="72" fill="white"/>
</clipPath>
</defs>
</svg>
