<svg width="72" height="72" viewBox="0 0 72 72" fill="none" xmlns="http://www.w3.org/2000/svg">
<path d="M18 36C18 42.618 23.382 48 30 48C35.283 48 39.726 44.547 41.325 39.798L47.997 35.925L48 36C48 45.942 39.942 54 30 54C20.058 54 12 45.942 12 36C12 26.058 20.058 18 30 18C33.252 18 36.294 18.876 38.925 20.382L32.295 24.231C31.551 24.087 30.786 24 30 24C23.382 24 18 29.382 18 36ZM30 30C26.685 30 24 32.688 24 36C24 39.312 26.685 42 30 42C33.315 42 36 39.312 36 36L35.994 35.955L46.074 30.105C49.002 28.41 54.186 29.097 57.207 30.582L72 21.993L62.526 17.286L63.033 6.39L48.198 15C47.988 18.363 45.996 23.208 43.083 24.903L32.934 30.795C32.064 30.306 31.071 30 30 30ZM53.985 35.733L54 36C54 49.233 43.233 60 30 60C16.767 60 6 49.233 6 36C6 22.767 16.767 12 30 12C34.425 12 38.559 13.224 42.123 15.321C43.125 13.563 43.407 10.689 42.561 8.781C38.736 7.014 34.491 6 30 6C13.431 6 0 19.431 0 36C0 52.569 13.431 66 30 66C45.699 66 58.563 53.937 59.871 38.574C58.968 37.125 56.673 35.391 53.985 35.733Z" fill="#10217D"/>
</svg>
