<svg width="60" height="107" viewBox="0 0 60 107" fill="none" xmlns="http://www.w3.org/2000/svg">
<g clip-path="url(#clip0_356_111)">
<path d="M1.32849 73.2386V9.33447H9.22795C-1.68767 60.745 37.2351 68.5428 58.061 66.0153V73.2386H1.32849Z" fill="#10217D"/>
<path d="M6.35547 46.3124L9.94613 42.7223L10.3052 42.3633L12.8187 47.3895L9.228 50.6206L6.35547 46.3124Z" fill="#10217D"/>
<path d="M12.1006 57.083L16.4094 52.7749L20 56.365L14.9731 61.0322L12.1006 57.083Z" fill="#10217D"/>
<path d="M22.8725 69.6484L20 65.3403L25.386 59.9551L30.0539 62.4682L22.8725 69.6484Z" fill="#10217D"/>
<path d="M57.3429 0L10.3052 43.7995L11.7414 46.6716L57.3429 3.94913V0Z" fill="#10217D"/>
<path d="M58.0611 15.4375L17.4866 53.4928L19.2819 55.6469L58.0611 19.3866V15.4375Z" fill="#10217D"/>
<path d="M57.3429 32.311L26.1041 61.391L28.9767 62.4681L57.3429 35.9012V32.311Z" fill="#10217D"/>
<path d="M12.8187 47.3895L9.228 50.6206L6.35547 46.3124L10.3052 42.3633" stroke="#527C88"/>
<path d="M16.4094 52.7749L12.1006 57.083L14.9731 61.0322L20 56.365" stroke="#527C88"/>
<path d="M25.386 59.9551L20 65.3403L22.8725 69.6484L30.0539 62.4682" stroke="#527C88"/>
<path d="M15.1885 76.8281V89.5443H13.1849V82.2133L13.3429 78.7022L9.22802 89.5731H7.3896L3.2747 78.7022L3.43269 82.2133V89.5731H1.39319V76.8281H4.64633L7.36805 84.1879L8.30881 87.2108H8.35189L9.31419 84.1879L12.0144 76.8281H15.1885Z" fill="#10217D"/>
<path d="M25.4003 76.6632C26.5812 76.6343 27.7501 76.9061 28.7971 77.4531C29.732 77.9709 30.4938 78.7526 30.9874 79.7005C31.4982 80.7993 31.7628 81.9963 31.7628 83.208C31.7628 84.4197 31.4982 85.6168 30.9874 86.7156C30.5036 87.6623 29.7552 88.4481 28.833 88.9773C27.786 89.5243 26.6171 89.7961 25.4362 89.7672C24.2622 89.7956 23.1004 89.5237 22.061 88.9773C21.1171 88.4609 20.3474 87.6763 19.8492 86.7227C19.3384 85.624 19.0737 84.4269 19.0737 83.2152C19.0737 82.0035 19.3384 80.8065 19.8492 79.7077C20.3452 78.7525 21.1155 77.9674 22.061 77.4531C23.0897 76.9126 24.2384 76.6409 25.4003 76.6632V76.6632ZM25.4003 78.4511C24.6442 78.4352 23.8985 78.6291 23.2459 79.0112C22.6277 79.4003 22.14 79.9655 21.8456 80.6339C21.4996 81.4481 21.333 82.3273 21.3572 83.2116C21.3352 84.0958 21.5017 84.9745 21.8456 85.7893C22.1362 86.4602 22.6248 87.0263 23.2459 87.4121C23.9174 87.7797 24.6707 87.9724 25.4362 87.9724C26.2018 87.9724 26.9551 87.7797 27.6265 87.4121C28.2498 87.0288 28.739 86.4619 29.0269 85.7893C29.3767 84.9761 29.5457 84.0966 29.5224 83.2116C29.548 82.3265 29.3789 81.4465 29.0269 80.6339C28.7336 79.9484 28.2341 79.3712 27.5978 78.9824C26.9297 78.6026 26.1682 78.4184 25.4003 78.4511V78.4511Z" fill="#10217D"/>
<path d="M41.1131 76.8285C42.3454 76.7601 43.5634 77.1204 44.5602 77.8481C44.9771 78.1735 45.3109 78.593 45.5344 79.0722C45.7578 79.5515 45.8645 80.0769 45.8456 80.6053C45.8723 81.1359 45.7691 81.6649 45.5451 82.1466C45.3212 82.6283 44.9831 83.0482 44.5602 83.3697C43.5498 84.0647 42.3377 84.4055 41.1131 84.3391L40.912 84.4611H37.781V89.5447H35.6266V76.8285H41.1131ZM40.948 82.745C41.6457 82.7998 42.3415 82.6177 42.9228 82.2281C43.1463 82.0366 43.3214 81.7949 43.4337 81.5229C43.546 81.2509 43.5924 80.9562 43.5691 80.6628C43.5901 80.3696 43.5427 80.0756 43.4305 79.804C43.3183 79.5323 43.1445 79.2904 42.9228 79.0975C42.3415 78.7079 41.6457 78.5257 40.948 78.5805H37.781V82.745H40.948ZM42.2406 83.1687L46.6427 89.5447H44.1221L40.3591 84.0088L42.2406 83.1687Z" fill="#10217D"/>
<path d="M49.9318 89.5731V76.8281H59.7127V78.6016H52.1221V82.2636H58.061V84.0084H52.1221V87.7852H60.0215V89.5587L49.9318 89.5731Z" fill="#10217D"/>
<path d="M11.4399 94.0615V95.835H6.81508V106.778H4.66068V95.8638H0V94.0615H11.4399Z" fill="#10217D"/>
<path d="M14.6355 106.806V94.0615H24.4165V95.835H16.8258V99.497H22.7576V101.242H16.8258V105.019H24.7253V106.792L14.6355 106.806Z" fill="#10217D"/>
<path d="M39.1742 103.432C38.9228 104.172 38.5023 104.843 37.9462 105.392C37.3956 105.925 36.7368 106.334 36.0144 106.591C35.0679 106.916 34.0663 107.05 33.0678 106.984C32.0692 106.919 31.0936 106.656 30.1975 106.21C29.2557 105.694 28.4884 104.909 27.9928 103.956C27.4773 102.858 27.21 101.661 27.21 100.448C27.21 99.2358 27.4773 98.0382 27.9928 96.9407C28.4863 95.9861 29.2541 95.2009 30.1975 94.6861C31.2324 94.1415 32.3891 93.8697 33.5584 93.8963C34.3733 93.8864 35.1848 94.0027 35.9641 94.241C36.6412 94.4548 37.2653 94.8096 37.7953 95.2821C38.3106 95.7651 38.7085 96.3594 38.9587 97.0197L36.8905 97.8814C36.6822 97.2164 36.2702 96.6337 35.7128 96.2155C35.1069 95.8379 34.4009 95.6527 33.6876 95.6842C32.9321 95.6734 32.1878 95.8669 31.5332 96.2442C30.9068 96.6339 30.4076 97.1979 30.097 97.867C29.7306 98.6757 29.5537 99.5573 29.5799 100.445C29.5543 101.329 29.7209 102.209 30.0682 103.022C30.3684 103.698 30.87 104.265 31.5045 104.645C32.173 105.033 32.9365 105.227 33.7092 105.205C34.4713 105.223 35.2214 105.013 35.8636 104.602C36.4935 104.161 36.9525 103.517 37.1634 102.778L39.1742 103.432Z" fill="#10217D"/>
<path d="M44.7397 94.0615V106.778H42.5853V94.0615H44.7397ZM52.5315 99.4826V101.242H43.6553V99.4682L52.5315 99.4826ZM53.6158 94.0615V106.778H51.4112V94.0615H53.6158Z" fill="#10217D"/>
</g>
<defs>
<clipPath id="clip0_356_111">
<rect width="60" height="107" fill="white"/>
</clipPath>
</defs>
</svg>
