<svg width="17" height="17" viewBox="0 0 17 17" fill="none" xmlns="http://www.w3.org/2000/svg">
<path d="M13.4583 0H3.54167C1.58596 0 0 1.58596 0 3.54167V13.4583C0 15.414 1.58596 17 3.54167 17H13.4583C15.4148 17 17 15.414 17 13.4583V3.54167C17 1.58596 15.4148 0 13.4583 0ZM11.3333 4.95833H9.9705C9.53487 4.95833 9.20833 5.13683 9.20833 5.58804V6.375H11.3333L11.1648 8.5H9.20833V14.1667H7.08333V8.5H5.66667V6.375H7.08333V5.01288C7.08333 3.58063 7.837 2.83333 9.53487 2.83333H11.3333V4.95833Z" fill="#F5F7F9"/>
</svg>
