<svg width="17" height="17" viewBox="0 0 17 17" fill="none" xmlns="http://www.w3.org/2000/svg">
<path d="M13.4583 0H3.54167C1.58596 0 0 1.58596 0 3.54167V13.4583C0 15.414 1.58596 17 3.54167 17H13.4583C15.4147 17 17 15.414 17 13.4583V3.54167C17 1.58596 15.4147 0 13.4583 0ZM6.13912 11.8058C4.31092 11.8058 2.83333 10.3275 2.83333 8.5C2.83333 6.6725 4.31092 5.19421 6.13912 5.19421C7.03162 5.19421 7.7775 5.52004 8.35408 6.05838L7.45663 6.92254C7.21083 6.68667 6.78087 6.41254 6.13912 6.41254C5.01075 6.41254 4.08992 7.34754 4.08992 8.5C4.08992 9.65246 5.01075 10.5875 6.13912 10.5875C7.44742 10.5875 7.93829 9.6475 8.01408 9.16158H6.13912V8.02825H9.26004C9.28908 8.19329 9.31246 8.35904 9.31246 8.57579C9.31175 10.4642 8.04667 11.8058 6.13912 11.8058ZM14.1667 8.97246H12.75V10.3891H11.8051V8.97246H10.3884V8.02825H11.8051V6.61158H12.75V8.02825H14.1667V8.97246Z" fill="#FC1921"/>
</svg>
