<svg width="85" height="85" viewBox="0 0 85 85" fill="none" xmlns="http://www.w3.org/2000/svg">
<circle cx="42.5" cy="42.5" r="42.5" fill="#E5E5E5"/>
<path d="M60.3856 24.5675C56.1324 20.341 50.5359 17.7107 44.5497 17.1246C38.5635 16.5384 32.5579 18.0328 27.5563 21.3531C22.5546 24.6734 18.8664 29.6141 17.12 35.3335C15.3735 41.0528 15.677 47.1969 17.9786 52.7189C20.2802 58.2408 24.4376 62.799 29.7423 65.6168C35.0471 68.4345 41.1711 69.3375 47.0708 68.1718C52.9705 67.0062 58.2809 63.844 62.0972 59.2241C65.9135 54.6042 67.9996 48.8125 68 42.8357C68.004 39.4425 67.3334 36.0819 66.0267 32.9469C64.72 29.8119 62.8029 26.9643 60.3856 24.5675ZM59.5566 60.2772C55.4986 64.3088 50.1593 66.8177 44.4484 67.3764C38.7374 67.9351 33.0082 66.509 28.2369 63.341C23.4655 60.1731 19.9472 55.4594 18.2815 50.003C16.6157 44.5466 16.9056 38.6851 19.1016 33.4172C21.2977 28.1494 25.264 23.801 30.3249 21.1131C35.3859 18.4252 41.2282 17.564 46.8565 18.6762C52.4848 19.7885 57.5509 22.8053 61.1916 27.2128C64.8322 31.6203 66.8222 37.1457 66.8225 42.8476C66.8268 46.0852 66.1871 49.2917 64.9402 52.2829C63.6932 55.274 61.8636 57.9908 59.5566 60.2772Z" fill="#527C88"/>
<path d="M58.41 27.3772C54.7292 23.8012 49.8859 21.5757 44.7055 21.0799C39.5251 20.5842 34.328 21.8489 29.9998 24.6585C25.6716 27.4682 22.48 31.649 20.9689 36.4885C19.4578 41.328 19.7206 46.5269 21.7126 51.1992C23.7047 55.8716 27.3026 59.7283 31.8934 62.1124C36.4842 64.4964 41.7839 65.2602 46.8893 64.2736C51.9948 63.287 56.5902 60.6111 59.8926 56.7018C63.195 52.7924 64.9999 47.8916 65 42.8343C65.0041 39.9631 64.424 37.1194 63.2931 34.4667C62.1621 31.814 60.5026 29.4047 58.41 27.3772ZM57.5633 57.4658C54.0795 60.8485 49.4963 62.9531 44.5945 63.4212C39.6928 63.8892 34.7756 62.6917 30.6806 60.0326C26.5857 57.3736 23.5663 53.4175 22.1368 48.8383C20.7073 44.259 20.9562 39.34 22.841 34.919C24.7258 30.498 28.13 26.8487 32.4736 24.5926C36.8172 22.3365 41.8316 21.6133 46.6625 22.5461C51.4934 23.4789 55.8421 26.01 58.9676 29.7083C62.0931 33.4066 63.8022 38.0433 63.8037 42.8285C63.8082 45.5475 63.2591 48.2406 62.1882 50.7526C61.1172 53.2647 59.5454 55.5462 57.5633 57.4658Z" fill="#527C88"/>
<path d="M57.8223 37.5989C57.7094 37.4876 57.5568 37.4252 57.3978 37.4253H47.4427V27.529C47.4421 27.372 47.3794 27.2216 47.2681 27.1101C47.1552 26.9988 47.0025 26.9364 46.8435 26.9365H37.1595C36.9998 26.9365 36.8466 26.9996 36.7337 27.1118C36.6207 27.2241 36.5573 27.3763 36.5573 27.535V37.4253H26.6022C26.4425 37.4253 26.2893 37.4884 26.1764 37.6006C26.0635 37.7129 26 37.8651 26 38.0239V47.6508C26.0015 47.8083 26.0653 47.9588 26.1777 48.0698C26.2893 48.1815 26.4408 48.2449 26.5992 48.2463H36.5573V58.1367C36.5587 58.2941 36.6226 58.4446 36.7349 58.5556C36.8473 58.668 37 58.7315 37.1595 58.7322H46.8435C47.003 58.7315 47.1557 58.668 47.2681 58.5556C47.3794 58.4441 47.4421 58.2937 47.4427 58.1367V48.2434H57.3978C57.5575 48.2434 57.7107 48.1803 57.8236 48.0681C57.9366 47.9558 58 47.8036 58 47.6448V38.0209C57.9993 37.8624 57.9354 37.7106 57.8223 37.5989ZM56.7985 47.0523H46.8435C46.6838 47.0523 46.5306 47.1154 46.4177 47.2276C46.3047 47.3399 46.2413 47.4921 46.2413 47.6508V57.5441H37.7557V47.6478C37.7558 47.4898 37.6931 47.3381 37.5811 47.2259C37.4689 47.1153 37.3175 47.053 37.1595 47.0523H27.2015V38.6164H37.1595C37.3192 38.6164 37.4724 38.5533 37.5853 38.4411C37.6983 38.3288 37.7617 38.1766 37.7617 38.0179V28.1276H46.2503V38.0209C46.2502 38.1789 46.313 38.3306 46.425 38.4428C46.5379 38.5541 46.6905 38.6165 46.8495 38.6164H56.7985V47.0523Z" fill="#527C88"/>
</svg>
