<svg width="77" height="137" viewBox="0 0 77 137" fill="none" xmlns="http://www.w3.org/2000/svg">
<g clip-path="url(#clip0_137_519)">
<path d="M1.70496 93.7724V11.9512H11.8426C-2.16578 77.7759 47.7852 87.7599 74.5117 84.5238V93.7724H1.70496Z" fill="#F5F7F9"/>
<path d="M8.15625 59.2976L12.7643 54.7009L13.2251 54.2412L16.4507 60.6766L11.8427 64.8136L8.15625 59.2976Z" fill="#F5F7F9"/>
<path d="M15.5291 73.0873L21.0587 67.5713L25.6667 72.168L19.2155 78.1437L15.5291 73.0873Z" fill="#F5F7F9"/>
<path d="M29.353 89.1757L25.6666 83.6597L32.5787 76.7646L38.5691 79.9823L29.353 89.1757Z" fill="#F5F7F9"/>
<path d="M73.59 0L13.225 56.0797L15.0682 59.7571L73.59 5.05637V0Z" fill="#F5F7F9"/>
<path d="M74.5116 19.7656L22.441 68.4906L24.745 71.2486L74.5116 24.822V19.7656Z" fill="#F5F7F9"/>
<path d="M73.59 41.3701L33.5002 78.6034L37.1867 79.9824L73.59 45.9668V41.3701Z" fill="#F5F7F9"/>
<path d="M16.4507 60.6766L11.8427 64.8136L8.15625 59.2976L13.2251 54.2412" stroke="#527C88"/>
<path d="M21.0587 67.5713L15.5291 73.0873L19.2155 78.1437L25.6667 72.168" stroke="#527C88"/>
<path d="M32.5787 76.7646L25.6666 83.6597L29.353 89.1757L38.5691 79.9823" stroke="#527C88"/>
<path d="M19.492 98.3691V114.651H16.9207V105.264L17.1235 100.769L11.8427 114.687H9.48336L4.20257 100.769L4.40532 105.264V114.687H1.78796V98.3691H5.96283L9.45571 107.792L10.663 111.663H10.7183L11.9533 107.792L15.4185 98.3691H19.492Z" fill="#F5F7F9"/>
<path d="M32.5972 98.158C34.1127 98.1209 35.6127 98.4689 36.9563 99.1692C38.1562 99.8323 39.1338 100.833 39.7672 102.047C40.4227 103.454 40.7624 104.986 40.7624 106.538C40.7624 108.089 40.4227 109.622 39.7672 111.029C39.1464 112.241 38.1859 113.247 37.0024 113.925C35.6588 114.625 34.1587 114.973 32.6432 114.936C31.1366 114.972 29.6456 114.624 28.3117 113.925C27.1003 113.263 26.1125 112.259 25.4732 111.038C24.8176 109.631 24.478 108.098 24.478 106.547C24.478 104.996 24.8176 103.463 25.4732 102.056C26.1098 100.833 27.0983 99.8278 28.3117 99.1692C29.6319 98.4772 31.1061 98.1294 32.5972 98.158V98.158ZM32.5972 100.447C31.6268 100.427 30.6698 100.675 29.8323 101.164C29.039 101.662 28.4131 102.386 28.0352 103.242C27.5912 104.284 27.3774 105.41 27.4085 106.542C27.3803 107.674 27.5939 108.799 28.0352 109.843C28.4082 110.702 29.0352 111.427 29.8323 111.92C30.6941 112.391 31.6607 112.638 32.6432 112.638C33.6257 112.638 34.5924 112.391 35.4541 111.92C36.254 111.43 36.8818 110.704 37.2513 109.843C37.7001 108.801 37.9171 107.675 37.8872 106.542C37.92 105.409 37.703 104.282 37.2513 103.242C36.8749 102.364 36.2339 101.625 35.4173 101.127C34.5599 100.641 33.5826 100.405 32.5972 100.447V100.447Z" fill="#F5F7F9"/>
<path d="M52.7618 98.3689C54.3432 98.2813 55.9063 98.7426 57.1855 99.6744C57.7205 100.091 58.149 100.628 58.4357 101.242C58.7225 101.855 58.8594 102.528 58.8351 103.205C58.8693 103.884 58.737 104.561 58.4495 105.178C58.1621 105.795 57.7282 106.332 57.1855 106.744C55.8888 107.634 54.3333 108.07 52.7618 107.985L52.5037 108.142H48.4855V114.65H45.7207V98.3689H52.7618ZM52.5498 105.944C53.4452 106.014 54.3381 105.781 55.0842 105.282C55.371 105.037 55.5957 104.728 55.7398 104.379C55.884 104.031 55.9435 103.654 55.9136 103.278C55.9406 102.903 55.8797 102.526 55.7358 102.179C55.5918 101.831 55.3687 101.521 55.0842 101.274C54.3381 100.775 53.4452 100.542 52.5498 100.612H48.4855V105.944H52.5498ZM54.2087 106.487L59.8581 114.65H56.6233L51.7941 107.562L54.2087 106.487Z" fill="#F5F7F9"/>
<path d="M64.0791 114.687V98.3691H76.6314V100.64H66.89V105.329H74.5117V107.563H66.89V112.398H77.0276V114.669L64.0791 114.687Z" fill="#F5F7F9"/>
<path d="M14.6811 120.434V122.704H8.74602V136.715H5.98121V122.741H0V120.434H14.6811Z" fill="#F5F7F9"/>
<path d="M18.7822 136.752V120.434H31.3345V122.704H21.5931V127.393H29.2056V129.627H21.5931V134.463H31.7308V136.733L18.7822 136.752Z" fill="#F5F7F9"/>
<path d="M50.2735 132.431C49.9509 133.378 49.4113 134.238 48.6975 134.941C47.991 135.624 47.1455 136.147 46.2184 136.476C45.0038 136.892 43.7184 137.063 42.4369 136.979C41.1554 136.896 39.9034 136.559 38.7534 135.989C37.5448 135.327 36.5601 134.322 35.9241 133.102C35.2625 131.697 34.9194 130.163 34.9194 128.611C34.9194 127.059 35.2625 125.525 35.9241 124.12C36.5574 122.898 37.5427 121.892 38.7534 121.233C40.0816 120.536 41.5661 120.188 43.0666 120.222C44.1123 120.209 45.1538 120.358 46.1539 120.663C47.0229 120.937 47.8238 121.391 48.504 121.996C49.1652 122.615 49.6759 123.376 49.997 124.221L47.3428 125.324C47.0755 124.473 46.5468 123.727 45.8314 123.191C45.0539 122.708 44.1478 122.471 43.2324 122.511C42.2629 122.497 41.3077 122.745 40.4676 123.228C39.6637 123.727 39.0231 124.449 38.6244 125.306C38.1542 126.341 37.9273 127.47 37.9609 128.606C37.928 129.739 38.1419 130.865 38.5876 131.907C38.9728 132.772 39.6165 133.498 40.4308 133.985C41.2887 134.481 42.2685 134.73 43.2601 134.702C44.2382 134.724 45.2007 134.455 46.0249 133.929C46.8333 133.365 47.4223 132.541 47.693 131.594L50.2735 132.431Z" fill="#F5F7F9"/>
<path d="M57.4159 120.434V136.715H54.6511V120.434H57.4159ZM67.4153 127.375V129.627H56.0243V127.356L67.4153 127.375ZM68.807 120.434V136.715H65.9776V120.434H68.807Z" fill="#F5F7F9"/>
</g>
<defs>
<clipPath id="clip0_137_519">
<rect width="77" height="137" fill="white"/>
</clipPath>
</defs>
</svg>
