<svg width="100" height="100" viewBox="0 0 100 100" fill="none" xmlns="http://www.w3.org/2000/svg">
<circle cx="50" cy="50" r="50" fill="#10217D"/>
<path d="M68.72 66.5408H32.08C31.5301 66.5408 31.0025 66.323 30.6127 65.9351C30.2229 65.5472 30.0026 65.0207 30 64.4708V43.6208C30.0026 43.0709 30.2229 42.5444 30.6127 42.1565C31.0025 41.7685 31.5301 41.5508 32.08 41.5508H68.72C69.269 41.5508 69.7955 41.7689 70.1837 42.1571C70.5719 42.5453 70.79 43.0718 70.79 43.6208V64.4408C70.794 64.7151 70.7434 64.9875 70.6411 65.2422C70.5389 65.4968 70.387 65.7285 70.1944 65.9239C70.0018 66.1193 69.7723 66.2745 69.5192 66.3804C69.266 66.4863 68.9944 66.5408 68.72 66.5408ZM32.08 42.2808C31.8993 42.2795 31.72 42.3139 31.5526 42.3822C31.3852 42.4505 31.2331 42.5511 31.1048 42.6785C30.9765 42.8058 30.8747 42.9573 30.8052 43.1242C30.7358 43.2911 30.7 43.47 30.7 43.6508V64.4708C30.7027 64.8351 30.8492 65.1835 31.1077 65.4401C31.3662 65.6968 31.7157 65.8408 32.08 65.8408H68.72C69.0842 65.8408 69.4337 65.6968 69.6923 65.4401C69.9508 65.1835 70.0973 64.8351 70.1 64.4708V43.6208C70.1 43.44 70.0642 43.261 69.9948 43.0942C69.9253 42.9273 69.8235 42.7758 69.6952 42.6485C69.5669 42.5212 69.4147 42.4205 69.2473 42.3522C69.0799 42.2839 68.9007 42.2495 68.72 42.2508L32.08 42.2808Z" fill="white"/>
<path d="M61.1201 42.28H39.6801C39.5872 42.28 39.4982 42.2431 39.4326 42.1775C39.3669 42.1119 39.3301 42.0228 39.3301 41.93V33.35C39.3301 33.2572 39.3669 33.1681 39.4326 33.1025C39.4982 33.0369 39.5872 33 39.6801 33H61.1201C61.2129 33 61.3019 33.0369 61.3676 33.1025C61.4332 33.1681 61.47 33.2572 61.47 33.35V41.93C61.47 42.0228 61.4332 42.1119 61.3676 42.1775C61.3019 42.2431 61.2129 42.28 61.1201 42.28ZM40.03 41.58H60.7701V33.7H40.03V41.58Z" fill="white"/>
<path d="M50.3998 58.2101C50.307 58.2101 50.218 58.1733 50.1523 58.1076C50.0867 58.042 50.0498 57.953 50.0498 57.8601V50.2602C50.0498 50.1673 50.0867 50.0783 50.1523 50.0127C50.218 49.947 50.307 49.9102 50.3998 49.9102C50.4926 49.9102 50.5816 49.947 50.6473 50.0127C50.7129 50.0783 50.7498 50.1673 50.7498 50.2602V57.8601C50.7498 57.953 50.7129 58.042 50.6473 58.1076C50.5816 58.1733 50.4926 58.2101 50.3998 58.2101Z" fill="white"/>
<path d="M54.1999 54.4001H46.5999C46.5496 54.4087 46.4981 54.4062 46.449 54.3928C46.3998 54.3794 46.3542 54.3554 46.3152 54.3226C46.2763 54.2897 46.245 54.2488 46.2235 54.2026C46.202 54.1564 46.1909 54.106 46.1909 54.0551C46.1909 54.0041 46.202 53.9538 46.2235 53.9076C46.245 53.8614 46.2763 53.8204 46.3152 53.7876C46.3542 53.7547 46.3998 53.7308 46.449 53.7174C46.4981 53.704 46.5496 53.7015 46.5999 53.7101H54.1999C54.2501 53.7015 54.3016 53.704 54.3508 53.7174C54.3999 53.7308 54.4456 53.7547 54.4845 53.7876C54.5234 53.8204 54.5548 53.8614 54.5762 53.9076C54.5977 53.9538 54.6088 54.0041 54.6088 54.0551C54.6088 54.106 54.5977 54.1564 54.5762 54.2026C54.5548 54.2488 54.5234 54.2897 54.4845 54.3226C54.4456 54.3554 54.3999 54.3794 54.3508 54.3928C54.3016 54.4062 54.2501 54.4087 54.1999 54.4001Z" fill="white"/>
<path d="M50.3999 61.3203C48.962 61.3203 47.5565 60.8939 46.3609 60.0951C45.1654 59.2962 44.2336 58.1608 43.6833 56.8324C43.1331 55.504 42.989 54.0422 43.2696 52.632C43.5501 51.2217 44.2425 49.9263 45.2592 48.9096C46.276 47.8929 47.5714 47.2005 48.9816 46.92C50.3918 46.6394 51.8536 46.7834 53.182 47.3337C54.5105 47.8839 55.6458 48.8157 56.4447 50.0113C57.2435 51.2068 57.6699 52.6124 57.6699 54.0503C57.6672 55.9776 56.9004 57.8252 55.5376 59.188C54.1748 60.5508 52.3272 61.3176 50.3999 61.3203ZM50.3999 47.4903C49.1 47.4903 47.8294 47.8759 46.7488 48.5982C45.6681 49.3206 44.826 50.3473 44.3291 51.5483C43.8321 52.7494 43.7026 54.071 43.9569 55.3457C44.2112 56.6204 44.838 57.7911 45.7578 58.7095C46.6776 59.6279 47.8492 60.2529 49.1243 60.5053C50.3994 60.7576 51.7207 60.6261 52.9211 60.1273C54.1214 59.6285 55.1468 58.7848 55.8675 57.7031C56.5882 56.6214 56.9719 55.3501 56.9699 54.0503C56.9672 52.3095 56.2739 50.641 55.0421 49.4111C53.8103 48.1811 52.1406 47.4903 50.3999 47.4903Z" fill="white"/>
<path d="M70.49 59.5003H55.08C55.0109 59.4967 54.9444 59.4734 54.8883 59.433C54.8322 59.3926 54.7888 59.3369 54.7635 59.2726C54.7382 59.2083 54.732 59.138 54.7455 59.0702C54.7591 59.0024 54.7918 58.9399 54.8399 58.8903C55.5119 58.2759 56.0483 57.5281 56.4151 56.6948C56.7818 55.8614 56.9708 54.9608 56.9699 54.0503C56.9741 52.7699 56.5983 51.517 55.89 50.4503C55.8584 50.3956 55.8417 50.3335 55.8417 50.2703C55.8417 50.2071 55.8584 50.145 55.89 50.0903C55.9206 50.0351 55.9656 49.9893 56.0202 49.9576C56.0747 49.9259 56.1369 49.9096 56.2 49.9103H70.49C70.5363 49.9089 70.5824 49.917 70.6255 49.9341C70.6686 49.9512 70.7077 49.977 70.7405 50.0097C70.7733 50.0425 70.799 50.0817 70.8161 50.1248C70.8332 50.1678 70.8413 50.214 70.8399 50.2603V59.1503C70.8399 59.2431 70.8031 59.3322 70.7375 59.3978C70.6718 59.4634 70.5828 59.5003 70.49 59.5003ZM55.95 58.8003H70.1499V50.6203H56.8499C57.4224 51.6764 57.7215 52.859 57.7199 54.0603C57.7009 55.8073 57.055 57.4894 55.8999 58.8003H55.95Z" fill="white"/>
<path d="M45.72 59.5002H30.35C30.2571 59.5002 30.1681 59.4633 30.1025 59.3976C30.0368 59.332 30 59.243 30 59.1501V50.2602C30 50.1673 30.0368 50.0783 30.1025 50.0127C30.1681 49.947 30.2571 49.9102 30.35 49.9102H44.62C44.6826 49.9109 44.7438 49.9283 44.7974 49.9608C44.8509 49.9932 44.8948 50.0394 44.9244 50.0945C44.9541 50.1497 44.9683 50.2118 44.9658 50.2743C44.9632 50.3369 44.944 50.3976 44.91 50.4501C44.2033 51.5176 43.8277 52.77 43.83 54.0501C43.8293 54.9548 44.0155 55.85 44.3768 56.6794C44.7382 57.5088 45.267 58.2546 45.93 58.8701C45.9735 58.9027 46.0087 58.945 46.033 58.9936C46.0573 59.0422 46.07 59.0958 46.07 59.1501C46.07 59.243 46.0331 59.332 45.9675 59.3976C45.9018 59.4633 45.8128 59.5002 45.72 59.5002ZM30.72 58.8001H44.92C43.7808 57.4795 43.1528 55.7942 43.15 54.0501C43.1484 52.8489 43.4476 51.6663 44.02 50.6101H30.72V58.8001Z" fill="white"/>
<path d="M58.0499 42.2803H42.7499C42.6571 42.2803 42.5681 42.2434 42.5024 42.1778C42.4368 42.1121 42.3999 42.0231 42.3999 41.9303V35.8803C42.3999 35.7875 42.4368 35.6984 42.5024 35.6328C42.5681 35.5671 42.6571 35.5303 42.7499 35.5303H58.0499C58.1428 35.5303 58.2318 35.5671 58.2974 35.6328C58.3631 35.6984 58.3999 35.7875 58.3999 35.8803V41.9303C58.3999 42.0231 58.3631 42.1121 58.2974 42.1778C58.2318 42.2434 58.1428 42.2803 58.0499 42.2803ZM43.0999 41.5803H57.7V36.2303H43.0999V41.5803Z" fill="white"/>
</svg>
