<svg width="100" height="100" viewBox="0 0 100 100" fill="none" xmlns="http://www.w3.org/2000/svg">
<circle cx="50" cy="50" r="50" fill="#10217D"/>
<path d="M70.44 45.2H30.35C30.2572 45.2 30.1682 45.1631 30.1025 45.0975C30.0369 45.0319 30 44.9428 30 44.85V42.1C30 42.0072 30.0369 41.9182 30.1025 41.8525C30.1682 41.7869 30.2572 41.75 30.35 41.75H70.44C70.5328 41.75 70.6219 41.7869 70.6875 41.8525C70.7531 41.9182 70.79 42.0072 70.79 42.1V44.85C70.79 44.9428 70.7531 45.0319 70.6875 45.0975C70.6219 45.1631 70.5328 45.2 70.44 45.2ZM30.7 44.5H70.08V42.45H30.68L30.7 44.5Z" fill="white"/>
<path d="M36.81 58.3404C36.7628 58.3416 36.7159 58.3324 36.6727 58.3134C36.6294 58.2944 36.591 58.266 36.56 58.2304C36.4959 58.1649 36.46 58.077 36.46 57.9854C36.46 57.8937 36.4959 57.8058 36.56 57.7404L50.16 44.6004C50.1918 44.5674 50.2298 44.5412 50.2719 44.5233C50.314 44.5053 50.3593 44.4961 50.405 44.4961C50.4508 44.4961 50.496 44.5053 50.5381 44.5233C50.5802 44.5412 50.6183 44.5674 50.65 44.6004C50.7142 44.6658 50.7501 44.7537 50.7501 44.8454C50.7501 44.937 50.7142 45.0249 50.65 45.0904L37.08 58.2404C37.0447 58.2752 37.0023 58.3022 36.9557 58.3194C36.9092 58.3367 36.8595 58.3438 36.81 58.3404Z" fill="white"/>
<path d="M63.97 58.3297C63.882 58.3285 63.7972 58.2966 63.73 58.2398L50.16 45.0998C50.1194 45.0705 50.0855 45.0328 50.0606 44.9893C50.0358 44.9457 50.0206 44.8974 50.0161 44.8475C50.0116 44.7976 50.0178 44.7473 50.0343 44.7C50.0509 44.6528 50.0775 44.6096 50.1122 44.5734C50.1469 44.5373 50.1889 44.509 50.2355 44.4905C50.2821 44.472 50.332 44.4638 50.3821 44.4663C50.4321 44.4687 50.4811 44.482 50.5255 44.505C50.57 44.528 50.6091 44.5603 50.64 44.5998L64.22 57.7398C64.2841 57.8052 64.32 57.8931 64.32 57.9847C64.32 58.0764 64.2841 58.1643 64.22 58.2298C64.187 58.2621 64.1479 58.2876 64.105 58.3048C64.0621 58.3219 64.0162 58.3304 63.97 58.3297Z" fill="white"/>
<path d="M61.0002 42.45H39.8002C39.7073 42.45 39.6184 42.4131 39.5527 42.3475C39.4871 42.2819 39.4502 42.1928 39.4502 42.1V39.35C39.4502 39.2572 39.4871 39.1682 39.5527 39.1025C39.6184 39.0369 39.7073 39 39.8002 39H61.0002C61.093 39 61.182 39.0369 61.2477 39.1025C61.3133 39.1682 61.3502 39.2572 61.3502 39.35V42.1C61.3502 42.1928 61.3133 42.2819 61.2477 42.3475C61.182 42.4131 61.093 42.45 61.0002 42.45ZM40.1502 41.75H60.6502V39.7H40.1502V41.75Z" fill="white"/>
<path d="M35.5201 61.2801C35.1048 61.2801 34.6988 61.1569 34.3535 60.9262C34.0081 60.6954 33.739 60.3674 33.58 59.9837C33.4211 59.6 33.3795 59.1777 33.4605 58.7704C33.5415 58.363 33.7415 57.9888 34.0352 57.6952C34.3289 57.4015 34.7031 57.2015 35.1105 57.1204C35.5178 57.0394 35.9401 57.081 36.3238 57.2399C36.7075 57.3989 37.0355 57.668 37.2662 58.0134C37.497 58.3587 37.6201 58.7647 37.6201 59.1801C37.6175 59.7362 37.3954 60.2688 37.0021 60.6621C36.6089 61.0553 36.0763 61.2774 35.5201 61.2801ZM35.5201 57.7801C35.2437 57.782 34.974 57.8658 34.7451 58.0209C34.5162 58.1759 34.3383 58.3952 34.2339 58.6512C34.1295 58.9072 34.1031 59.1884 34.1583 59.4593C34.2134 59.7302 34.3475 59.9787 34.5437 60.1735C34.7399 60.3683 34.9894 60.5006 35.2607 60.5539C35.532 60.6071 35.8129 60.5788 36.0682 60.4725C36.3234 60.3663 36.5415 60.1868 36.6949 59.9568C36.8483 59.7268 36.9301 59.4565 36.9301 59.1801C36.9301 58.9954 36.8936 58.8125 36.8226 58.642C36.7517 58.4715 36.6476 58.3167 36.5165 58.1866C36.3855 58.0564 36.23 57.9535 36.059 57.8838C35.888 57.814 35.7048 57.7788 35.5201 57.7801Z" fill="white"/>
<path d="M65.0101 61.49C64.5948 61.49 64.1888 61.3669 63.8435 61.1361C63.4981 60.9054 63.229 60.5774 63.07 60.1937C62.9111 59.8099 62.8695 59.3877 62.9505 58.9804C63.0315 58.573 63.2315 58.1988 63.5252 57.9051C63.8189 57.6114 64.1931 57.4114 64.6005 57.3304C65.0078 57.2494 65.4301 57.291 65.8138 57.4499C66.1975 57.6088 66.5255 57.878 66.7562 58.2233C66.987 58.5687 67.1102 58.9747 67.1102 59.39C67.1075 59.9462 66.8855 60.4788 66.4922 60.8721C66.0989 61.2653 65.5663 61.4874 65.0101 61.49ZM65.0101 57.99C64.7308 57.99 64.4579 58.073 64.2258 58.2284C63.9937 58.3838 63.813 58.6046 63.7065 58.8628C63.6001 59.121 63.5728 59.405 63.628 59.6788C63.6832 59.9526 63.8185 60.2038 64.0167 60.4006C64.2149 60.5974 64.4671 60.7309 64.7413 60.7842C65.0154 60.8374 65.2992 60.8081 65.5567 60.6998C65.8142 60.5916 66.0337 60.4093 66.1874 60.1761C66.3411 59.9429 66.4222 59.6693 66.4202 59.39C66.4202 59.2053 66.3836 59.0225 66.3126 58.852C66.2416 58.6815 66.1376 58.5267 66.0065 58.3965C65.8755 58.2664 65.72 58.1635 65.549 58.0937C65.3779 58.024 65.1948 57.9887 65.0101 57.99Z" fill="white"/>
<path d="M69.29 61.6696H31.51C31.4598 61.6782 31.4083 61.6757 31.3591 61.6623C31.31 61.6489 31.2643 61.625 31.2254 61.5921C31.1865 61.5593 31.1551 61.5183 31.1337 61.4721C31.1122 61.4259 31.1011 61.3756 31.1011 61.3246C31.1011 61.2737 31.1122 61.2233 31.1337 61.1771C31.1551 61.1309 31.1865 61.09 31.2254 61.0571C31.2643 61.0242 31.31 61.0003 31.3591 60.9869C31.4083 60.9735 31.4598 60.971 31.51 60.9796H69.29C69.3403 60.971 69.3918 60.9735 69.4409 60.9869C69.4901 61.0003 69.5357 61.0242 69.5746 61.0571C69.6136 61.09 69.6449 61.1309 69.6664 61.1771C69.6879 61.2233 69.699 61.2737 69.699 61.3246C69.699 61.3756 69.6879 61.4259 69.6664 61.4721C69.6449 61.5183 69.6136 61.5593 69.5746 61.5921C69.5357 61.625 69.4901 61.6489 69.4409 61.6623C69.3918 61.6757 69.3403 61.6782 69.29 61.6696Z" fill="white"/>
</svg>
