<svg width="100" height="100" viewBox="0 0 100 100" fill="none" xmlns="http://www.w3.org/2000/svg">
<circle cx="50" cy="50" r="50" fill="#10217D"/>
<path d="M64.5747 56.9722H64.2637V55.9709C64.2642 54.4191 63.6473 52.9306 62.5486 51.8326C61.4499 50.7346 59.9594 50.1169 58.4045 50.1153H58.3784C56.8255 50.1201 55.3378 50.7391 54.2414 51.8367C53.145 52.9344 52.5293 54.421 52.5293 55.9709V58.7405C52.5295 58.7948 52.5404 58.8486 52.5614 58.8987C52.5401 58.9487 52.5291 59.0025 52.5293 59.0569V61.8125C52.5029 63.1369 51.9572 64.3982 51.0093 65.3256C50.0615 66.2529 48.7871 66.7724 47.4597 66.7724C46.1324 66.7724 44.858 66.2529 43.9101 65.3256C42.9623 64.3982 42.4166 63.1369 42.3902 61.8125V59.129H49.1382C49.4578 59.1293 49.7742 59.0667 50.0695 58.9448C50.3648 58.823 50.6331 58.6442 50.8592 58.4188C51.0852 58.1934 51.2645 57.9258 51.3869 57.6312C51.5092 57.3365 51.5722 57.0208 51.5722 56.7018V52.937C52.4514 52.8398 53.2637 52.422 53.8533 51.7637C54.4428 51.1055 54.768 50.2532 54.7666 49.3704C54.7602 49.0788 54.7073 48.7902 54.6101 48.5152C54.4123 47.9631 54.1525 47.435 53.8356 46.9412C53.3641 46.1954 52.8453 45.4803 52.2825 44.8005C51.9655 44.3999 51.7026 44.1056 51.5662 43.9514V38.7827C51.5667 38.4636 51.5041 38.1476 51.3819 37.8527C51.2598 37.5579 51.0805 37.29 50.8543 37.0645C50.6282 36.839 50.3596 36.6603 50.0641 36.5386C49.7686 36.4169 49.4519 36.3547 49.1322 36.3555H44.9184C45.1592 36.0494 45.3087 35.6818 45.3501 35.2949C45.3915 34.9079 45.323 34.5172 45.1525 34.1672C44.9819 33.8173 44.7162 33.5222 44.3856 33.3158C44.0551 33.1094 43.673 33 43.2831 33C42.8932 33 42.5111 33.1094 42.1805 33.3158C41.85 33.5222 41.5842 33.8173 41.4137 34.1672C41.2431 34.5172 41.1746 34.9079 41.216 35.2949C41.2574 35.6818 41.407 36.0494 41.6477 36.3555H37.434C37.1143 36.3547 36.7976 36.4169 36.5021 36.5386C36.2065 36.6603 35.938 36.839 35.7118 37.0645C35.4857 37.29 35.3064 37.5579 35.1842 37.8527C35.0621 38.1476 34.9995 38.4636 35 38.7827V56.6998C34.9997 57.0189 35.0625 57.3349 35.1847 57.6298C35.307 57.9246 35.4862 58.1925 35.7123 58.4181C35.9384 58.6437 36.2068 58.8226 36.5022 58.9446C36.7976 59.0666 37.1143 59.1293 37.434 59.129H41.5916V61.8125C41.5916 62.5814 41.7433 63.3429 42.0382 64.0533C42.333 64.7637 42.7652 65.4092 43.31 65.953C43.8548 66.4967 44.5016 66.9281 45.2135 67.2223C45.9253 67.5166 46.6882 67.668 47.4587 67.668C48.2292 67.668 48.9922 67.5166 49.704 67.2223C50.4158 66.9281 51.0626 66.4967 51.6075 65.953C52.1523 65.4092 52.5844 64.7637 52.8793 64.0533C53.1742 63.3429 53.3259 62.5814 53.3259 61.8125V59.0429C53.3269 58.9884 53.316 58.9344 53.2938 58.8847C53.3158 58.8349 53.3267 58.7809 53.3259 58.7265V55.9569C53.3275 54.6152 53.8622 53.329 54.8128 52.3803C55.7634 51.4316 57.0522 50.8979 58.3965 50.8963C59.7409 50.8969 61.0301 51.4303 61.9806 52.3792C62.9311 53.3282 63.4651 54.6151 63.4651 55.9569V56.9582H62.9173C62.8108 56.9582 62.7088 57.0004 62.6335 57.0755C62.5582 57.1506 62.516 57.2525 62.516 57.3587V60.5769C62.516 60.6831 62.5582 60.785 62.6335 60.8601C62.7088 60.9352 62.8108 60.9774 62.9173 60.9774H63.3447V63.8311C63.3447 63.9373 63.3869 64.0392 63.4622 64.1143C63.5375 64.1894 63.6395 64.2316 63.746 64.2316C63.8524 64.2316 63.9545 64.1894 64.0297 64.1143C64.105 64.0392 64.1473 63.9373 64.1473 63.8311V60.9774H64.5747C64.6811 60.9774 64.7832 60.9352 64.8585 60.8601C64.9337 60.785 64.976 60.6831 64.976 60.5769V57.3587C64.976 57.2525 64.9337 57.1506 64.8585 57.0755C64.7832 57.0004 64.6811 56.9582 64.5747 56.9582V56.9722ZM52.4832 46.3585C52.8714 46.8827 53.2201 47.4349 53.5266 48.0106C53.657 48.2555 53.7671 48.5107 53.8556 48.7736C53.9246 48.9668 53.9632 49.1694 53.97 49.3744C53.97 50.1148 53.6753 50.8248 53.1508 51.3483C52.6262 51.8719 51.9147 52.166 51.1729 52.166C50.431 52.166 49.7196 51.8719 49.195 51.3483C48.6704 50.8248 48.3757 50.1148 48.3757 49.3744C48.384 49.1694 48.4233 48.9669 48.4921 48.7736C48.6721 48.2819 48.9063 47.8118 49.1904 47.3718C49.6417 46.6558 50.1376 45.9689 50.6752 45.3151C50.8759 45.0788 51.0384 44.8765 51.1729 44.7143C51.4799 45.0648 51.9855 45.6736 52.4832 46.3625V46.3585ZM42.3801 34.1767C42.5898 33.9673 42.8658 33.8369 43.1609 33.8078C43.4561 33.7787 43.7523 33.8526 43.999 34.017C44.2457 34.1813 44.4277 34.426 44.5139 34.7093C44.6001 34.9925 44.5853 35.2969 44.4719 35.5704C44.3585 35.844 44.1536 36.0699 43.892 36.2095C43.6305 36.3492 43.3285 36.394 43.0375 36.3364C42.7466 36.2788 42.4846 36.1223 42.2963 35.8935C42.108 35.6648 42.0051 35.3779 42.0049 35.0819C42.0046 34.9138 42.0376 34.7472 42.102 34.5919C42.1664 34.4366 42.2609 34.2955 42.3801 34.1767ZM35.7966 38.7827C35.7971 38.3503 35.9693 37.9358 36.2755 37.6299C36.5816 37.324 36.9967 37.1516 37.4299 37.1505H49.1382C49.3531 37.1503 49.5658 37.1923 49.7644 37.2742C49.9629 37.3562 50.1433 37.4764 50.2952 37.628C50.4471 37.7796 50.5675 37.9596 50.6496 38.1578C50.7317 38.3559 50.7738 38.5683 50.7736 38.7827V43.9494C50.5308 44.2237 49.8947 44.9506 49.2506 45.8398C48.8962 46.3224 48.5693 46.8245 48.2714 47.3437H35.7966V38.7827ZM37.434 58.332C37.0008 58.332 36.5853 58.1602 36.279 57.8545C35.9727 57.5488 35.8006 57.1342 35.8006 56.7018V48.1408H47.8681C47.8159 48.2669 47.7677 48.3931 47.7256 48.5152C47.6292 48.7904 47.5764 49.0789 47.5691 49.3704C47.5686 50.2533 47.8945 51.1054 48.4842 51.7634C49.074 52.4215 49.8863 52.8394 50.7655 52.937V56.7018C50.7658 56.9162 50.7237 57.1284 50.6416 57.3264C50.5594 57.5245 50.439 57.7044 50.287 57.8558C50.1351 58.0073 49.9547 58.1273 49.7562 58.209C49.5577 58.2907 49.3449 58.3325 49.1302 58.332H37.434ZM64.1794 60.1864H63.3186V57.7692H64.1734L64.1794 60.1864Z" fill="white"/>
</svg>
