<svg width="100" height="100" viewBox="0 0 100 100" fill="none" xmlns="http://www.w3.org/2000/svg">
<circle cx="50" cy="50" r="50" fill="#10217D"/>
<path d="M67.0752 33.128L62.6608 37.5337C61.4568 37.5858 59.9278 37.768 58.6597 37.9342C57.3354 38.1164 56.31 38.2887 56.308 38.2887C56.2264 38.3013 56.1511 38.34 56.0933 38.3988L38.863 55.5951L37.4764 54.2113C37.3993 54.1501 37.3023 54.1194 37.204 54.125C37.1056 54.1306 37.0128 54.1722 36.9431 54.2417C36.8734 54.3112 36.8318 54.4039 36.8262 54.502C36.8206 54.6002 36.8513 54.697 36.9126 54.774L38.58 56.4381L40.089 57.9461L35.5682 62.4579L33.7061 60.6155C33.6701 60.5736 33.6259 60.5396 33.5761 60.5155C33.5263 60.4915 33.4721 60.478 33.4168 60.4758C33.3615 60.4737 33.3064 60.483 33.2549 60.5031C33.2034 60.5233 33.1567 60.5538 33.1175 60.5929C33.0784 60.6319 33.0478 60.6786 33.0276 60.73C33.0075 60.7814 32.9982 60.8364 33.0003 60.8915C33.0024 60.9467 33.016 61.0008 33.0401 61.0505C33.0641 61.1002 33.0983 61.1444 33.1403 61.1803L39.5392 67.5625C39.6163 67.6237 39.7133 67.6544 39.8117 67.6488C39.91 67.6432 40.0029 67.6016 40.0725 67.5321C40.1422 67.4626 40.1838 67.3699 40.1894 67.2718C40.195 67.1736 40.1643 67.0768 40.103 66.9998L38.2409 65.1454L42.7617 60.6336L44.2707 62.1395L45.9461 63.8037C46.0233 63.8648 46.1203 63.8955 46.2186 63.8899C46.317 63.8843 46.4098 63.8428 46.4795 63.7732C46.5491 63.7037 46.5908 63.6111 46.5964 63.5129C46.602 63.4147 46.5712 63.3179 46.51 63.2409L45.1234 61.8572L57.7266 49.2769L62.3417 44.6609C62.3965 44.606 62.4341 44.5365 62.4501 44.4606C62.4501 44.4606 62.6327 43.4914 62.8173 42.1977C63.0253 40.8436 63.1593 39.4791 63.2186 38.1104L67.633 33.7047C67.675 33.6688 67.7091 33.6246 67.7332 33.5749C67.7573 33.5253 67.7709 33.4711 67.773 33.416C67.7751 33.3608 67.7658 33.3058 67.7456 33.2544C67.7255 33.203 67.6949 33.1563 67.6557 33.1173C67.6166 33.0783 67.5699 33.0477 67.5184 33.0276C67.4669 33.0075 67.4118 32.9982 67.3565 33.0003C67.3012 33.0024 67.247 33.0159 67.1972 33.04C67.1474 33.064 67.1031 33.0981 67.0672 33.14L67.0752 33.128ZM37.6771 64.5827L37.0089 63.9158L36.124 63.0327L40.6448 58.5208L42.1979 60.0708L37.6771 64.5827ZM44.5536 61.2944L39.4188 56.1698L51.7431 43.8719L56.8758 48.9945L44.5536 61.2944ZM62.0327 42.0696C61.9424 42.7084 61.8501 43.2711 61.7839 43.6716C61.7498 43.8719 61.7217 44.0301 61.7016 44.1402C61.7026 44.1556 61.7026 44.171 61.7016 44.1863L57.4477 48.4318L52.3069 43.3172L56.5568 39.0757C56.8919 39.0216 57.8571 38.8754 59.0088 38.7112C60.1124 38.565 61.3846 38.4168 62.42 38.3608C62.3638 39.5403 62.1992 40.9381 62.0327 42.0756V42.0696Z" fill="white"/>
<path d="M50.1318 46.0979C50.0577 46.1729 50.0161 46.2739 50.0161 46.3793C50.0161 46.4846 50.0577 46.5857 50.1318 46.6606L51.4722 47.9984C51.5493 48.0595 51.6463 48.0902 51.7447 48.0846C51.843 48.079 51.9359 48.0375 52.0056 47.9679C52.0752 47.8984 52.1168 47.8057 52.1224 47.7076C52.1281 47.6094 52.0973 47.5126 52.036 47.4356L50.6957 46.0979C50.6205 46.0239 50.5193 45.9824 50.4137 45.9824C50.3082 45.9824 50.2069 46.0239 50.1318 46.0979Z" fill="white"/>
<path d="M48.8436 47.949C48.7665 47.8894 48.6703 47.8599 48.573 47.866C48.4757 47.8721 48.3839 47.9133 48.3148 47.982C48.2458 48.0507 48.2041 48.1422 48.1977 48.2393C48.1912 48.3364 48.2204 48.4325 48.2798 48.5097L49.6201 49.8474C49.6553 49.8916 49.6995 49.9279 49.7497 49.9539C49.7999 49.9798 49.855 49.9949 49.9115 49.9982C49.968 50.0014 50.0245 49.9927 50.0773 49.9726C50.1302 49.9524 50.1782 49.9214 50.2182 49.8815C50.2582 49.8416 50.2892 49.7937 50.3094 49.7409C50.3295 49.6882 50.3383 49.6318 50.3351 49.5754C50.3318 49.5191 50.3167 49.464 50.2907 49.4139C50.2646 49.3638 50.2283 49.3198 50.184 49.2847L48.8436 47.949Z" fill="white"/>
<path d="M47.2183 49.571C47.1414 49.5077 47.0437 49.4753 46.9441 49.4799C46.8446 49.4846 46.7503 49.5261 46.6797 49.5963C46.6091 49.6665 46.5672 49.7604 46.5622 49.8598C46.5571 49.9591 46.5893 50.0568 46.6525 50.1338L47.9928 51.4715C48.0283 51.5147 48.0725 51.5501 48.1224 51.5753C48.1724 51.6005 48.2271 51.6149 48.2831 51.6178C48.339 51.6206 48.3949 51.6117 48.4471 51.5917C48.4994 51.5716 48.5469 51.5409 48.5866 51.5015C48.6262 51.462 48.6572 51.4147 48.6774 51.3626C48.6977 51.3105 48.7068 51.2548 48.7042 51.1989C48.7016 51.1431 48.6872 51.0885 48.6622 51.0385C48.6371 50.9885 48.6019 50.9443 48.5587 50.9088L47.2183 49.571Z" fill="white"/>
<path d="M45.5007 51.2835C45.423 51.2262 45.3272 51.1988 45.2309 51.2063C45.1346 51.2138 45.0442 51.2558 44.9764 51.3244C44.9085 51.3931 44.8678 51.4839 44.8617 51.5801C44.8555 51.6763 44.8843 51.7715 44.9429 51.8482L46.2832 53.186C46.3189 53.2291 46.3631 53.2643 46.4132 53.2893C46.4633 53.3143 46.5181 53.3286 46.574 53.3312C46.6299 53.3338 46.6858 53.3247 46.738 53.3045C46.7902 53.2843 46.8376 53.2534 46.8771 53.2138C46.9166 53.1742 46.9474 53.1268 46.9675 53.0747C46.9875 53.0225 46.9965 52.9667 46.9936 52.9109C46.9908 52.8551 46.9763 52.8005 46.9511 52.7506C46.9258 52.7007 46.8904 52.6566 46.8471 52.6212L45.5007 51.2835Z" fill="white"/>
<path d="M43.8734 52.9073C43.8382 52.8631 43.7941 52.8268 43.7439 52.8008C43.6936 52.7748 43.6385 52.7597 43.582 52.7565C43.5256 52.7533 43.4691 52.762 43.4162 52.7821C43.3634 52.8022 43.3154 52.8333 43.2754 52.8732C43.2354 52.9131 43.2043 52.961 43.1841 53.0137C43.164 53.0665 43.1553 53.1229 43.1585 53.1792C43.1617 53.2356 43.1768 53.2906 43.2029 53.3407C43.2289 53.3909 43.2653 53.4349 43.3096 53.47L44.6499 54.8077C44.727 54.8673 44.8232 54.8968 44.9205 54.8907C45.0179 54.8846 45.1096 54.8433 45.1787 54.7747C45.2478 54.706 45.2894 54.6145 45.2959 54.5174C45.3023 54.4203 45.2731 54.3242 45.2137 54.247L43.8734 52.9073Z" fill="white"/>
</svg>
