<svg width="100" height="100" viewBox="0 0 100 100" fill="none" xmlns="http://www.w3.org/2000/svg">
<circle cx="50" cy="50" r="50" fill="#D7BAAD"/>
<path d="M71.3057 27.0038C71.4399 27.0038 71.5686 26.9509 71.6635 26.8568C71.7585 26.7627 71.8118 26.635 71.8118 26.5019C71.8118 26.3688 71.7585 26.2411 71.6635 26.147C71.5686 26.0529 71.4399 26 71.3057 26H51.676C51.5418 26 51.4131 26.0529 51.3181 26.147C51.2232 26.2411 51.1699 26.3688 51.1699 26.5019C51.1699 26.635 51.2232 26.7627 51.3181 26.8568C51.4131 26.9509 51.5418 27.0038 51.676 27.0038H54.0522V33.9273H45.4761V27.0038H48.1332C48.2674 27.0038 48.3962 26.9509 48.4911 26.8568C48.586 26.7627 48.6393 26.635 48.6393 26.5019C48.6393 26.3688 48.586 26.2411 48.4911 26.147C48.3962 26.0529 48.2674 26 48.1332 26H28.5061C28.3719 26 28.2432 26.0529 28.1482 26.147C28.0533 26.2411 28 26.3688 28 26.5019C28 26.635 28.0533 26.7627 28.1482 26.8568C28.2432 26.9509 28.3719 27.0038 28.5061 27.0038H30.8899V33.9273H28.5061C28.3719 33.9273 28.2432 33.9802 28.1482 34.0743C28.0533 34.1684 28 34.2961 28 34.4292V65.2953C28 65.4284 28.0533 65.5561 28.1482 65.6502C28.2432 65.7443 28.3719 65.7972 28.5061 65.7972H71.3057C71.4393 65.7973 71.5676 65.745 71.6625 65.6516C71.7566 65.5575 71.8093 65.4303 71.8092 65.2978V34.4317C71.8093 34.2992 71.7566 34.172 71.6625 34.0779C71.5676 33.9846 71.4393 33.9322 71.3057 33.9323H68.646V27.0038H71.3057ZM67.6414 37.566H55.0645V34.9261H67.6414V37.566ZM55.067 38.5698H67.6414V53.5587C67.6417 54.3654 67.479 55.1641 67.1631 55.9076C66.8471 56.651 66.3842 57.3242 65.8017 57.8874C64.6136 59.0411 63.017 59.6872 61.3542 59.6872C59.6914 59.6872 58.0948 59.0411 56.9067 57.8874C56.324 57.3232 55.8609 56.6491 55.5445 55.9049C55.2282 55.1607 55.065 54.3613 55.0645 53.5536L55.067 38.5698ZM44.469 27.0088V33.9273H31.8971V27.0038L44.469 27.0088ZM44.469 37.571H31.8971V34.9261H44.469V37.571ZM31.8971 38.5748H44.469V53.5637C44.4692 54.3705 44.3066 55.1691 43.9906 55.9126C43.6747 56.656 43.2118 57.3292 42.6292 57.8924C41.4416 59.0459 39.8454 59.692 38.183 59.692C36.5206 59.692 34.9244 59.0459 33.7368 57.8924C33.1543 57.3292 32.6914 56.656 32.3754 55.9126C32.0594 55.1691 31.8968 54.3705 31.8971 53.5637V38.5748ZM70.8021 64.7984H28.9996V63.6014H70.8021V64.7984ZM70.8021 34.9361V62.5926H28.9996V34.9261H30.8823V53.5536C30.8828 54.4927 31.0721 55.4223 31.4393 56.288C31.8065 57.1536 32.3441 57.938 33.0207 58.5951C34.3974 59.9318 36.2474 60.6803 38.1742 60.6803C40.1009 60.6803 41.9509 59.9318 43.3277 58.5951C44.005 57.9384 44.5433 57.1543 44.911 56.2885C45.2786 55.4228 45.4682 54.493 45.4685 53.5536V34.9261H54.0522V53.5536C54.0527 54.4927 54.242 55.4223 54.6092 56.288C54.9764 57.1536 55.514 57.938 56.1906 58.5951C57.5673 59.9318 59.4173 60.6803 61.3441 60.6803C63.2708 60.6803 65.1208 59.9318 66.4976 58.5951C67.1746 57.9383 67.7125 57.1541 68.0797 56.2883C68.4469 55.4226 68.636 54.4928 68.6359 53.5536V34.9261L70.8021 34.9361ZM67.6414 33.9323H55.0645V27.0038H67.6414V33.9323Z" fill="#10217D"/>
</svg>
