<svg width="43" height="39" viewBox="0 0 43 39" fill="none" xmlns="http://www.w3.org/2000/svg">
<path d="M0.366265 9.38086H42.6456C42.7375 9.38641 42.8242 9.42521 42.8894 9.48994C42.9545 9.55467 42.9936 9.64082 42.9992 9.73219V38.3551C43.0025 38.4027 42.9957 38.4504 42.9793 38.4952C42.9629 38.5399 42.9372 38.5808 42.9038 38.615C42.8705 38.6492 42.8302 38.6761 42.7858 38.6939C42.7413 38.7117 42.6935 38.7199 42.6456 38.7182H0.366265C0.317381 38.7217 0.268305 38.7147 0.222383 38.6977C0.176462 38.6807 0.134739 38.654 0.100084 38.6196C0.0654284 38.5852 0.0386468 38.5437 0.0215239 38.4981C0.0044011 38.4525 -0.00262865 38.4037 0.000876869 38.3551V9.73219C0.00671591 9.6389 0.0474111 9.55115 0.115011 9.48615C0.182612 9.42115 0.272234 9.3836 0.366265 9.38086ZM42.2802 10.0953H0.778775V38.0038H42.2802V10.0953Z" fill="#10217D"/>
<path d="M7.63895 0H35.3615C35.4556 0.00274076 35.5452 0.0403267 35.6128 0.105329C35.6804 0.170331 35.7211 0.258079 35.7269 0.351371V9.72068C35.7213 9.81515 35.681 9.90427 35.6137 9.97119C35.5463 10.0381 35.4566 10.0782 35.3615 10.0837H7.63895C7.54387 10.0782 7.45418 10.0381 7.38683 9.97119C7.31948 9.90427 7.27917 9.81515 7.27356 9.72068V0.351371C7.2819 0.258986 7.32338 0.172657 7.39046 0.108153C7.45755 0.0436485 7.54575 0.00525091 7.63895 0ZM35.0079 0.714429H8.06329V9.38103H35.0079V0.714429Z" fill="#10217D"/>
<path d="M20.4511 17.801H22.5256C22.6293 17.7974 22.7306 17.8328 22.8093 17.9001C22.8879 17.9674 22.9381 18.0616 22.9499 18.1641V22.6496H27.4054C27.5067 22.6431 27.6065 22.6762 27.6836 22.7418C27.7607 22.8075 27.8089 22.9005 27.8179 23.0009V25.0973C27.8179 25.3315 27.6411 25.4486 27.4054 25.4486H22.9499V29.9341C22.9499 30.1684 22.7731 30.2972 22.5256 30.2972H20.4276C20.3791 30.2989 20.3309 30.2906 20.2858 30.2729C20.2407 30.2552 20.1998 30.2285 20.1655 30.1945C20.1312 30.1605 20.1044 30.1198 20.0866 30.075C20.0688 30.0302 20.0605 29.9823 20.0622 29.9341V25.4486H15.5596C15.5118 25.452 15.4637 25.4452 15.4187 25.4289C15.3736 25.4126 15.3325 25.387 15.2981 25.3539C15.2636 25.3208 15.2366 25.2808 15.2187 25.2366C15.2008 25.1924 15.1924 25.1449 15.1942 25.0973V23.0009C15.2 22.9077 15.2408 22.8199 15.3084 22.7549C15.376 22.6899 15.4656 22.6524 15.5596 22.6496H20.0622V18.1641C20.0678 18.0696 20.1081 17.9805 20.1754 17.9135C20.2427 17.8466 20.3325 17.8066 20.4276 17.801H20.4511ZM22.1956 18.5154H20.8047V23.0009C20.7995 23.0935 20.7608 23.1812 20.6959 23.2478C20.631 23.3145 20.5441 23.3557 20.4511 23.364H15.9368V24.7343H20.4511C20.545 24.7401 20.6333 24.7805 20.6988 24.8477C20.7642 24.9148 20.802 25.0039 20.8047 25.0973V29.5711H22.1956V25.0973C22.1983 25.0039 22.2361 24.9148 22.3015 24.8477C22.367 24.7805 22.4553 24.7401 22.5492 24.7343H27.0635V23.364H22.5256C22.4326 23.3557 22.3457 23.3145 22.2808 23.2478C22.2159 23.1812 22.1773 23.0935 22.172 23.0009L22.1956 18.5154Z" fill="#10217D"/>
</svg>
