<svg width="44" height="40" viewBox="0 0 44 40" fill="none" xmlns="http://www.w3.org/2000/svg">
<path d="M43.3057 1.00378C43.4399 1.00378 43.5686 0.950898 43.6635 0.856776C43.7584 0.762654 43.8118 0.634996 43.8118 0.501888C43.8118 0.368779 43.7584 0.241121 43.6635 0.146999C43.5686 0.0528769 43.4399 0 43.3057 0H23.676C23.5418 0 23.4131 0.0528769 23.3181 0.146999C23.2232 0.241121 23.1699 0.368779 23.1699 0.501888C23.1699 0.634996 23.2232 0.762654 23.3181 0.856776C23.4131 0.950898 23.5418 1.00378 23.676 1.00378H26.0522V7.92731H17.4761V1.00378H20.1332C20.2674 1.00378 20.3962 0.950898 20.4911 0.856776C20.586 0.762654 20.6393 0.634996 20.6393 0.501888C20.6393 0.368779 20.586 0.241121 20.4911 0.146999C20.3962 0.0528769 20.2674 0 20.1332 0H0.506114C0.371884 0 0.24316 0.0528769 0.148245 0.146999C0.0533299 0.241121 0 0.368779 0 0.501888C0 0.634996 0.0533299 0.762654 0.148245 0.856776C0.24316 0.950898 0.371884 1.00378 0.506114 1.00378H2.88991V7.92731H0.506114C0.371884 7.92731 0.24316 7.98019 0.148245 8.07431C0.0533299 8.16844 0 8.29609 0 8.4292V39.2953C0 39.4284 0.0533299 39.5561 0.148245 39.6502C0.24316 39.7443 0.371884 39.7972 0.506114 39.7972H43.3057C43.4393 39.7973 43.5676 39.745 43.6625 39.6516C43.7566 39.5575 43.8093 39.4303 43.8092 39.2978V8.43171C43.8093 8.29918 43.7566 8.17198 43.6625 8.07788C43.5676 7.98455 43.4393 7.93223 43.3057 7.93234H40.646V1.00378H43.3057ZM39.6414 11.566H27.0645V8.92607H39.6414V11.566ZM27.067 12.5698H39.6414V27.5587C39.6417 28.3654 39.479 29.1641 39.1631 29.9076C38.8471 30.651 38.3842 31.3242 37.8017 31.8874C36.6136 33.0411 35.017 33.6872 33.3542 33.6872C31.6914 33.6872 30.0948 33.0411 28.9067 31.8874C28.324 31.3232 27.8609 30.6491 27.5445 29.9049C27.2282 29.1607 27.065 28.3613 27.0645 27.5536L27.067 12.5698ZM16.469 1.00879V7.92731H3.89708V1.00378L16.469 1.00879ZM16.469 11.571H3.89708V8.92607H16.469V11.571ZM3.89708 12.5748H16.469V27.5637C16.4692 28.3705 16.3066 29.1691 15.9906 29.9126C15.6747 30.656 15.2118 31.3292 14.6292 31.8924C13.4416 33.0459 11.8454 33.692 10.183 33.692C8.52063 33.692 6.92443 33.0459 5.7368 31.8924C5.15427 31.3292 4.69137 30.656 4.3754 29.9126C4.05943 29.1691 3.8968 28.3705 3.89708 27.5637V12.5748ZM42.8021 38.7984H0.999578V37.6014H42.8021V38.7984ZM42.8021 8.93611V36.5926H0.999578V8.92607H2.88232V27.5536C2.88279 28.4927 3.07215 29.4223 3.43931 30.288C3.80648 31.1536 4.34409 31.938 5.02066 32.5951C6.3974 33.9318 8.24743 34.6803 10.1742 34.6803C12.1009 34.6803 13.9509 33.9318 15.3277 32.5951C16.005 31.9384 16.5433 31.1543 16.911 30.2885C17.2786 29.4228 17.4682 28.493 17.4685 27.5536V8.92607H26.0522V27.5536C26.0527 28.4927 26.242 29.4223 26.6092 30.288C26.9764 31.1536 27.514 31.938 28.1906 32.5951C29.5673 33.9318 31.4173 34.6803 33.3441 34.6803C35.2708 34.6803 37.1208 33.9318 38.4976 32.5951C39.1746 31.9383 39.7125 31.1541 40.0797 30.2883C40.4469 29.4226 40.636 28.4928 40.6359 27.5536V8.92607L42.8021 8.93611ZM39.6414 7.93234H27.0645V1.00378H39.6414V7.93234Z" fill="#10217D"/>
</svg>
