<svg width="44" height="31" viewBox="0 0 44 31" fill="none" xmlns="http://www.w3.org/2000/svg">
<path d="M10.9773 25.6522C11.1115 25.6522 11.2402 25.5993 11.3352 25.5052C11.4301 25.4111 11.4834 25.2834 11.4834 25.1503C11.4834 25.0172 11.4301 24.8896 11.3352 24.7954C11.2402 24.7013 11.1115 24.6484 10.9773 24.6484H7.9178C7.78357 24.6484 7.65484 24.7013 7.55992 24.7954C7.465 24.8896 7.41168 25.0172 7.41168 25.1503C7.41168 25.2834 7.465 25.4111 7.55992 25.5052C7.65484 25.5993 7.78357 25.6522 7.9178 25.6522H10.9773Z" fill="#10217D"/>
<path d="M7.9178 22.8925H10.9773C11.1115 22.8925 11.2402 22.8396 11.3352 22.7454C11.4301 22.6513 11.4834 22.5237 11.4834 22.3906C11.4834 22.2575 11.4301 22.1298 11.3352 22.0357C11.2402 21.9415 11.1115 21.8887 10.9773 21.8887H7.9178C7.78357 21.8887 7.65484 21.9415 7.55992 22.0357C7.465 22.1298 7.41168 22.2575 7.41168 22.3906C7.41168 22.5237 7.465 22.6513 7.55992 22.7454C7.65484 22.8396 7.78357 22.8925 7.9178 22.8925Z" fill="#10217D"/>
<path d="M14.2821 19.9125H21.4107L23.754 26.9515C23.7878 27.0483 23.8507 27.1326 23.9343 27.1929C24.0179 27.2533 24.1181 27.2868 24.2214 27.2889C24.3248 27.2911 24.4263 27.2619 24.5124 27.2052C24.5985 27.1484 24.665 27.0669 24.7029 26.9715L27.5524 19.5085L29.63 14.068L30.9408 19.5311L30.9813 19.6992C31.0084 19.808 31.0715 19.9047 31.1605 19.9738C31.2494 20.0429 31.3592 20.0805 31.4722 20.0806H38.2314C38.3656 20.0806 38.4943 20.0277 38.5893 19.9336C38.6842 19.8395 38.7375 19.7119 38.7375 19.5787C38.7375 19.4456 38.6842 19.318 38.5893 19.2238C38.4943 19.1297 38.3656 19.0769 38.2314 19.0769H31.8695L30.2297 12.2537C30.2043 12.1505 30.1465 12.058 30.0646 11.9894C29.9828 11.9209 29.8811 11.8798 29.7742 11.8723C29.6666 11.865 29.5595 11.892 29.4684 11.9493C29.3774 12.0066 29.3072 12.0913 29.2681 12.191L26.4845 19.4959L24.2652 25.3028L22.3242 19.4734L22.2534 19.26C22.2195 19.1608 22.1552 19.0745 22.0695 19.0133C21.9837 18.9521 21.8807 18.919 21.7751 18.9188H14.2821C14.1478 18.9188 14.0191 18.9716 13.9242 19.0658C13.8293 19.1599 13.7759 19.2875 13.7759 19.4206C13.7759 19.5538 13.8293 19.6814 13.9242 19.7755C14.0191 19.8697 14.1478 19.9225 14.2821 19.9225V19.9125Z" fill="#10217D"/>
<path d="M43.303 29.1276H41.0406C41.0761 29.0975 41.109 29.0649 41.1419 29.0323C41.4912 28.6872 41.7681 28.2769 41.9566 27.8251C42.1451 27.3732 42.2415 26.8889 42.2401 26.3999V7.83011C42.2408 7.34076 42.1441 6.85609 41.9557 6.40383C41.7672 5.95158 41.4907 5.54062 41.1418 5.19449C40.793 4.84835 40.3788 4.57383 39.9229 4.38664C39.4669 4.19945 38.9782 4.10328 38.4848 4.10361H12.5489C12.1276 3.031 11.4241 2.08994 10.5117 1.37834C9.59927 0.666738 8.51122 0.210576 7.36074 0.057336C6.21027 -0.0959038 5.0394 0.0593706 3.96995 0.506993C2.9005 0.954616 1.97154 1.67823 1.27972 2.60258C0.587898 3.52692 0.158491 4.61822 0.0361693 5.76292C-0.0861521 6.90762 0.103082 8.06391 0.584184 9.1115C1.06529 10.1591 1.82068 11.0597 2.77178 11.7197C3.72287 12.3796 4.83492 12.7748 5.99224 12.864V26.4149C5.99214 26.9043 6.0893 27.3889 6.27819 27.841C6.46707 28.2932 6.74396 28.7039 7.09304 29.0499L7.19173 29.1427H5.59747C5.46324 29.1427 5.33451 29.1956 5.23959 29.2897C5.14468 29.3838 5.09135 29.5115 5.09135 29.6446C5.09135 29.7777 5.14468 29.9054 5.23959 29.9995C5.33451 30.0936 5.46324 30.1465 5.59747 30.1465H43.303C43.4372 30.1465 43.5659 30.0936 43.6608 29.9995C43.7558 29.9054 43.8091 29.7777 43.8091 29.6446C43.8091 29.5115 43.7558 29.3838 43.6608 29.2897C43.5659 29.1956 43.4372 29.1427 43.303 29.1427V29.1276ZM40.4282 5.88781C40.6845 6.14076 40.8878 6.4415 41.0263 6.7727C41.1649 7.10389 41.236 7.459 41.2355 7.81756V26.3873C41.2342 27.1104 40.9439 27.8034 40.4283 28.3147C39.9128 28.826 39.2139 29.1138 38.4848 29.1151H13.0576V5.08981H38.4848C38.8458 5.08893 39.2034 5.159 39.537 5.29597C39.8706 5.43294 40.1735 5.63409 40.4282 5.88781ZM2.61393 10.2793C1.71519 9.38876 1.15567 8.21673 1.03071 6.96293C0.90575 5.70913 1.22308 4.45115 1.92863 3.40336C2.63417 2.35557 3.68428 1.58282 4.89999 1.21677C6.11571 0.85072 7.42181 0.914024 8.59573 1.39591C9.76965 1.87779 10.7387 2.74844 11.3379 3.85947C11.937 4.9705 12.1291 6.25317 11.8814 7.4889C11.6337 8.72464 10.9616 9.83697 9.97956 10.6364C8.99752 11.4357 7.76634 11.8727 6.49582 11.8728C5.77483 11.8738 5.06073 11.7336 4.39456 11.4601C3.72839 11.1866 3.12325 10.7854 2.61393 10.2793ZM6.9994 26.3999V12.849C8.02926 12.7711 9.02557 12.451 9.90574 11.9151C10.7859 11.3791 11.5246 10.6429 12.0605 9.7674V29.1251H9.75013C9.0206 29.1251 8.32094 28.8378 7.80508 28.3262C7.28921 27.8146 6.9994 27.1208 6.9994 26.3974V26.3999Z" fill="#10217D"/>
<path d="M7.97338 10.325C8.06842 10.2313 8.12212 10.1041 8.12268 9.9712V8.04394H10.0662C10.2004 8.04394 10.3291 7.99107 10.424 7.89695C10.5189 7.80283 10.5723 7.67517 10.5723 7.54206V5.3137C10.5724 5.18116 10.5196 5.05396 10.4255 4.95986C10.3302 4.86745 10.202 4.81605 10.0687 4.81682H8.12268V2.88707C8.12212 2.75418 8.06842 2.62694 7.97338 2.53325C7.87911 2.44053 7.75187 2.38825 7.6191 2.3877H5.37196C5.23919 2.38825 5.11195 2.44053 5.01768 2.53325C4.92264 2.62694 4.86894 2.75418 4.86838 2.88707V4.81682H2.92491C2.79162 4.81605 2.6634 4.86745 2.5681 4.95986C2.47398 5.05396 2.42122 5.18116 2.42133 5.3137V7.54206C2.42133 7.67517 2.47465 7.80283 2.56956 7.89695C2.66448 7.99107 2.79321 8.04394 2.92744 8.04394H4.87091V9.9712C4.87091 10.1043 4.92423 10.232 5.01915 10.3261C5.11406 10.4202 5.24279 10.4731 5.37702 10.4731H7.62416C7.75553 10.4706 7.88077 10.4175 7.97338 10.325ZM7.11552 7.54457V9.47432H5.87554V7.54457C5.87554 7.41146 5.82222 7.28381 5.72731 7.18969C5.63239 7.09557 5.50366 7.04268 5.36943 7.04268H3.42849V5.81307H5.37196C5.50619 5.81307 5.63492 5.76019 5.72984 5.66607C5.82475 5.57194 5.87807 5.44429 5.87807 5.31119V3.38395H7.11805V5.31119C7.11805 5.44429 7.17137 5.57194 7.26629 5.66607C7.3612 5.76019 7.48993 5.81307 7.62416 5.81307H9.56763V7.04268H7.6191C7.48487 7.04268 7.35614 7.09557 7.26122 7.18969C7.16631 7.28381 7.11299 7.41146 7.11299 7.54457H7.11552Z" fill="#10217D"/>
</svg>
