<svg width="46" height="47" viewBox="0 0 46 47" fill="none" xmlns="http://www.w3.org/2000/svg">
<path d="M36.75 3.89752C36.7626 3.78789 36.8163 3.68702 36.9005 3.61503C36.9847 3.54303 37.093 3.50519 37.204 3.50906C37.3035 3.51792 37.3965 3.56203 37.4659 3.63334C37.5354 3.70466 37.5767 3.79843 37.5824 3.89752V45.7133C37.5767 45.8124 37.5354 45.9062 37.4659 45.9775C37.3965 46.0488 37.3035 46.0929 37.204 46.1018C37.093 46.1056 36.9847 46.0678 36.9005 45.9958C36.8163 45.9238 36.7626 45.8229 36.75 45.7133V3.89752Z" fill="#10217D"/>
<path d="M45.1745 5.81369C45.4394 5.81369 45.6285 5.939 45.6285 6.20215C45.6158 6.31071 45.5616 6.41027 45.4771 6.48024C45.3926 6.55021 45.2843 6.58522 45.1745 6.57806H0.39117C0.291449 6.57244 0.197076 6.5314 0.125301 6.46238C0.0535256 6.39337 0.00913771 6.301 0.0002177 6.20215C-0.00154028 6.15067 0.00736376 6.09936 0.026389 6.05144C0.0454142 6.00352 0.0741698 5.96002 0.11083 5.9236C0.14749 5.88717 0.191303 5.8586 0.239531 5.8397C0.287759 5.82079 0.339355 5.81195 0.39117 5.81369H45.1745Z" fill="#10217D"/>
<path d="M45.1745 43.0312C45.2843 43.024 45.3926 43.059 45.4771 43.129C45.5616 43.199 45.6158 43.2986 45.6285 43.4071C45.6285 43.6703 45.4394 43.7956 45.1745 43.7956H0.39117C0.339355 43.7974 0.287759 43.7885 0.239531 43.7696C0.191303 43.7507 0.14749 43.7221 0.11083 43.6857C0.0741698 43.6493 0.0454142 43.6058 0.026389 43.5579C0.00736376 43.5099 -0.00154028 43.4586 0.0002177 43.4071C0.00913771 43.3083 0.0535256 43.2159 0.125301 43.1469C0.197076 43.0779 0.291449 43.0368 0.39117 43.0312H45.1745Z" fill="#10217D"/>
<path d="M18.8545 17.0049C21.2912 17.735 23.4324 19.2134 24.971 21.2278C26.5598 23.3266 27.4186 25.882 27.4176 28.5083C27.4294 30.0992 27.122 31.6765 26.5136 33.1481C25.9051 34.6197 25.0077 35.9562 23.8738 37.0795C22.7475 38.2142 21.4054 39.1152 19.9257 39.7302C18.4459 40.3452 16.8579 40.6619 15.2539 40.6619C13.6499 40.6619 12.0619 40.3452 10.5821 39.7302C9.10236 39.1152 7.7603 38.2142 6.63397 37.0795C5.50233 35.9545 4.60643 34.6177 3.99814 33.1465C3.38985 31.6753 3.08125 30.0988 3.09015 28.5083C3.08852 27.8017 3.15606 27.0966 3.2919 26.4031C3.412 25.7038 3.60649 25.0191 3.87206 24.3605C4.49657 22.6134 5.52648 21.037 6.87837 19.7591C8.23025 18.4812 9.86605 17.5376 11.6533 17.0049V2.86999C11.666 2.76143 11.7202 2.66187 11.8047 2.5919C11.8892 2.52193 11.9975 2.48692 12.1073 2.49408H18.413C18.5214 2.48711 18.6283 2.5225 18.7108 2.59274C18.7933 2.66298 18.8448 2.76249 18.8545 2.86999V17.0049ZM24.3278 21.7416C22.8329 19.7701 20.7357 18.3325 18.35 17.644C18.3024 17.6409 18.256 17.6282 18.2134 17.6068C18.1709 17.5854 18.1332 17.5556 18.1025 17.5193C18.0719 17.483 18.049 17.4409 18.0352 17.3956C18.0213 17.3503 18.0169 17.3026 18.0221 17.2555V3.25845H12.4857V17.2555C12.4851 17.3461 12.4535 17.4338 12.3963 17.5044C12.339 17.5749 12.2594 17.6241 12.1704 17.644C10.4391 18.1455 8.84967 19.0423 7.52934 20.2629C6.21829 21.4642 5.2078 22.9532 4.5783 24.6112C4.37077 25.2404 4.19811 25.8804 4.06118 26.5284C3.93575 27.181 3.87246 27.8439 3.87206 28.5083C3.87741 30.2921 4.30848 32.0492 5.12997 33.6352C5.95146 35.2213 7.1399 36.5912 8.59766 37.6323C10.0554 38.6734 11.741 39.3561 13.5159 39.6243C15.2907 39.8925 17.1043 39.7385 18.8076 39.1751C20.511 38.6116 22.0555 37.6547 23.3144 36.383C24.5733 35.1113 25.5106 33.5609 26.0494 31.8594C26.5882 30.1578 26.7131 28.3535 26.4138 26.5947C26.1146 24.8358 25.3996 23.1726 24.3278 21.7416Z" fill="#10217D"/>
<path d="M9.39578 0H21.1117C21.2115 0.00561831 21.3058 0.0467024 21.3776 0.11572C21.4494 0.184737 21.4938 0.277106 21.5027 0.375955V2.88217C21.4967 2.98325 21.4536 3.07861 21.3815 3.15021C21.3095 3.22181 21.2135 3.26467 21.1117 3.27063H9.39578C9.29532 3.26442 9.20083 3.22112 9.13084 3.14925C9.06084 3.07738 9.02041 2.98214 9.01746 2.88217V0.375955C9.02344 0.278194 9.06522 0.185969 9.13492 0.116714C9.20462 0.0474591 9.29739 0.00594097 9.39578 0ZM20.6577 0.764415H9.84977V2.44357H20.6577V0.764415Z" fill="#10217D"/>
</svg>
