<svg width="17" height="17" viewBox="0 0 17 17" fill="none" xmlns="http://www.w3.org/2000/svg">
<path d="M13.4583 0H3.54167C1.58596 0 0 1.58596 0 3.54167V13.4583C0 15.414 1.58596 17 3.54167 17H13.4583C15.4148 17 17 15.414 17 13.4583V3.54167C17 1.58596 15.4148 0 13.4583 0ZM13.3599 6.54288C13.5079 9.81325 11.0691 13.4598 6.75112 13.4598C5.43787 13.4598 4.216 13.0751 3.18679 12.415C4.42071 12.5602 5.65179 12.218 6.62929 11.4523C5.61142 11.4332 4.75292 10.761 4.45754 9.83733C4.82233 9.90675 5.18075 9.88621 5.50729 9.79767C4.38883 9.57312 3.61746 8.56587 3.64225 7.4885C3.95533 7.66275 4.31446 7.76758 4.69483 7.77962C3.65996 7.08758 3.36671 5.7205 3.97517 4.675C5.12196 6.08175 6.83542 7.00754 8.76775 7.10458C8.42846 5.65037 9.53275 4.25 11.0337 4.25C11.7017 4.25 12.3066 4.53192 12.7302 4.98454C13.26 4.88042 13.758 4.68704 14.2078 4.42071C14.0335 4.964 13.6652 5.41946 13.1856 5.70704C13.656 5.65037 14.1043 5.52571 14.5208 5.34083C14.2099 5.8055 13.8153 6.21492 13.3599 6.54288Z" fill="#FC1921"/>
</svg>
