<svg width="17" height="17" viewBox="0 0 17 17" fill="none" xmlns="http://www.w3.org/2000/svg">
<path d="M7.08333 6.61088L10.8609 8.49646L7.08333 10.3891V6.61088ZM17 3.54167V13.4583C17 15.414 15.4148 17 13.4583 17H3.54167C1.58596 17 0 15.414 0 13.4583V3.54167C0 1.58596 1.58596 0 3.54167 0H13.4583C15.4148 0 17 1.58596 17 3.54167ZM14.1667 8.5C14.1525 5.57954 13.9379 4.4625 12.0962 4.33712C10.3941 4.22096 6.60379 4.22167 4.9045 4.33712C3.06425 4.4625 2.8475 5.57458 2.83333 8.5C2.8475 11.4205 3.06212 12.5375 4.90379 12.6629C6.60308 12.7783 10.3934 12.779 12.0955 12.6629C13.9358 12.5375 14.1525 11.4254 14.1667 8.5Z" fill="#F5F7F9"/>
</svg>
